<svg xmlns="http://www.w3.org/2000/svg" viewBox="0 0 24 24" width="512" height="512">
  <path d="M12,22C6.486,22,2,17.514,2,12C2,6.486,6.486,2,12,2c5.514,0,10,4.486,10,10C22,17.514,17.514,22,12,22z M16.536,9.545 c-0.472-0.786-0.5-1.727-0.029-2.5c0.282-0.47,0.218-1.059-0.253-1.44c-0.472-0.381-1.171-0.337-1.612,0.098 c-0.443,0.438-1.065,0.635-1.699,0.635c-0.634,0-1.256-0.197-1.699-0.635c-0.442-0.435-1.14-0.479-1.612-0.098 c-0.472,0.381-0.536,0.97-0.253,1.44c0.471,0.773-0.057,1.714-0.529,2.5c-0.447,0.744-0.669,1.572-0.669,2.455 c0,0.1,0.1,0.2,0.2,0.2h10c0.1,0,0.2-0.1,0.2-0.2C17.205,11.117,16.983,10.289,16.536,9.545z"/>
</svg>
