<?xml version="1.0" standalone="no"?>
<!DOCTYPE svg PUBLIC "-//W3C//DTD SVG 20010904//EN"
 "http://www.w3.org/TR/2001/REC-SVG-20010904/DTD/svg10.dtd">
<svg version="1.0" xmlns="http://www.w3.org/2000/svg"
 width="400.000000pt" height="400.000000pt" viewBox="0 0 400.000000 400.000000"
 preserveAspectRatio="xMidYMid meet">
<metadata>
Created by potrace 1.14, written by Peter Selinger 2001-2017
</metadata>
<g transform="translate(0.000000,400.000000) scale(0.100000,-0.100000)"
fill="#000000" stroke="none">
<path d="M3419 3624 c-25 -6 -58 -18 -75 -27 -17 -8 -43 -12 -62 -10 -32 5
-33 5 -20 -16 8 -13 23 -21 40 -21 16 0 28 -4 28 -10 0 -5 -5 -10 -12 -10 -21
0 -117 33 -113 40 8 14 -133 -9 -162 -26 -26 -15 -36 -17 -51 -8 -23 15 -82
28 -105 25 -10 -1 -33 -9 -50 -17 l-32 -15 30 6 c17 3 39 7 50 10 11 2 38 -4
60 -14 41 -19 39 -23 -17 -35 -30 -7 -39 -26 -12 -26 9 0 12 -5 8 -12 -8 -12
54 22 95 54 30 23 42 23 35 1 -2 -10 1 -8 7 4 14 26 40 38 49 22 5 -7 10 -8
14 -1 8 14 44 11 50 -4 3 -7 16 -9 32 -6 l27 5 -6 -75 c-4 -41 -9 -82 -12 -90
-4 -9 4 -19 21 -27 24 -11 26 -10 21 9 -7 28 8 25 32 -6 27 -34 27 -23 0 31
-21 41 -21 43 -3 76 10 19 19 40 19 48 0 8 12 18 27 22 22 6 28 3 34 -13 3
-11 12 -17 20 -14 15 6 18 -8 15 -62 -2 -18 2 -31 7 -30 5 2 25 -13 44 -32 42
-42 71 -60 97 -60 12 0 29 -16 45 -45 15 -25 31 -45 35 -45 5 0 7 -9 4 -20 -3
-11 -9 -17 -14 -14 -5 3 -9 0 -9 -7 0 -7 -3 -9 -6 -6 -4 4 -20 -3 -37 -15 -17
-12 -28 -17 -24 -11 8 12 -42 5 -60 -9 -21 -16 -121 -12 -165 7 -10 4 -25 4
-34 1 -8 -3 -12 -2 -9 4 3 6 -3 10 -14 10 -17 0 -19 4 -11 30 5 18 5 30 -1 30
-5 0 -9 -9 -9 -20 0 -33 -27 -34 -81 -6 -28 14 -56 23 -61 19 -6 -3 -8 -2 -5
4 6 10 -20 27 -60 38 -12 3 -59 -1 -105 -9 -46 -8 -94 -15 -108 -14 -43 1 -50
-2 -50 -16 0 -8 -6 -17 -12 -19 -7 -3 1 -6 19 -6 27 -1 31 -4 27 -23 l-5 -23
10 23 c7 13 19 22 33 22 34 0 68 -11 63 -20 -3 -5 4 -6 15 -3 11 3 20 0 20 -6
0 -9 5 -9 20 -1 12 6 20 7 20 1 0 -5 -15 -13 -32 -16 -41 -9 -109 -45 -134
-70 -19 -18 -19 -18 2 -13 61 16 47 -39 -18 -71 -21 -10 -35 -20 -33 -23 3 -3
-2 -5 -10 -5 -16 0 -11 10 32 58 l23 26 -30 -5 c-16 -2 -30 -9 -30 -15 0 -5
-8 -16 -17 -24 -10 -8 -12 -11 -5 -8 11 6 12 3 3 -14 -7 -11 -16 -21 -21 -21
-5 0 -16 -16 -25 -35 -23 -48 -39 -59 -64 -45 -16 8 -21 8 -20 -2 2 -21 17
-64 18 -51 1 7 8 10 16 7 13 -5 13 -9 3 -23 -12 -14 -11 -14 4 -3 9 8 23 10
29 6 8 -4 9 -3 5 4 -4 7 -1 12 7 12 8 0 32 26 53 58 22 31 53 64 69 72 35 17
69 49 78 73 3 9 21 24 39 33 38 20 153 30 142 13 -4 -8 0 -8 15 0 17 10 21 9
21 -4 0 -8 5 -15 10 -15 6 0 10 4 10 9 0 5 9 7 21 4 11 -3 16 -9 11 -12 -6 -3
-14 -18 -17 -34 -4 -16 -12 -24 -19 -20 -6 3 -8 3 -4 -2 4 -4 2 -15 -5 -23 -8
-10 -8 -13 -1 -9 7 4 15 0 18 -9 3 -8 2 -13 -2 -10 -5 3 -9 0 -10 -7 -1 -7 -3
-28 -6 -47 -2 -19 -4 -47 -5 -62 -1 -15 -12 -39 -26 -54 -37 -40 -30 -43 11
-3 19 18 35 30 34 24 -2 -5 -2 -17 -1 -25 1 -13 3 -13 10 -1 6 9 6 22 -1 34
-15 29 -1 108 30 175 24 51 31 58 48 51 31 -11 130 -22 209 -23 72 -1 185 30
193 53 2 6 8 11 13 11 6 0 30 17 55 38 48 39 47 37 29 117 -3 16 -13 34 -21
38 -7 4 -23 27 -34 50 -10 23 -19 38 -20 33 0 -4 -8 1 -17 13 -11 13 -36 24
-63 29 -41 7 -44 9 -45 39 -1 27 33 115 35 90 0 -4 -7 -22 -16 -39 -9 -16 -11
-27 -5 -23 6 3 18 19 26 36 9 16 24 29 34 29 50 0 70 32 29 45 -13 4 -27 6
-33 5 -5 -1 -7 2 -3 5 12 13 -45 50 -77 51 -16 0 -51 -5 -76 -12z m61 -56
c-17 -23 -30 -54 -30 -70 0 -40 -16 -35 -23 8 -7 44 4 68 41 87 43 23 44 20
12 -25z m-140 -4 c0 -2 -13 -4 -30 -4 -16 0 -30 4 -30 8 0 5 14 7 30 4 17 -2
30 -6 30 -8z m-307 -331 c-7 -2 -19 -2 -25 0 -7 3 -2 5 12 5 14 0 19 -2 13 -5z
m-228 -13 c3 -5 1 -10 -4 -10 -6 0 -11 5 -11 10 0 6 2 10 4 10 3 0 8 -4 11
-10z m873 -74 c-8 -15 -39 -43 -73 -64 -59 -36 -62 -37 -158 -37 -55 0 -101 3
-104 8 -2 4 4 7 14 7 11 0 23 4 28 8 6 4 37 16 70 27 33 10 65 22 70 26 6 4
31 10 58 14 26 4 47 11 47 15 0 4 11 11 25 14 17 4 23 11 19 19 -5 9 -4 9 5 1
8 -7 8 -17 -1 -38z m-909 -199 c-2 -1 -13 -9 -24 -17 -19 -14 -19 -14 -6 3 7
9 18 17 24 17 6 0 8 -1 6 -3z"/>
<path d="M2860 3465 c-11 -13 -10 -14 4 -9 9 3 16 10 16 15 0 13 -6 11 -20 -6z"/>
<path d="M910 3403 c-8 -3 -21 -11 -29 -17 -8 -6 -24 -11 -35 -11 -22 0 -29
-25 -11 -37 6 -5 5 -8 -3 -8 -8 0 -10 -5 -6 -12 4 -7 4 -10 -1 -6 -4 4 -14 3
-22 -3 -16 -14 -17 -5 -3 22 7 12 7 19 1 19 -6 0 -15 -9 -21 -20 -6 -11 -8
-20 -4 -20 3 0 2 -6 -3 -12 -7 -9 -6 -24 4 -47 14 -33 15 -33 32 -15 10 11 17
22 14 26 -2 4 9 14 24 22 15 8 21 15 14 16 -28 0 3 19 39 22 35 4 35 4 10 15
l-25 12 23 0 c13 1 33 -4 45 -10 16 -9 22 -9 25 0 2 6 9 8 15 4 34 -21 49 -7
20 20 -18 15 -22 17 -43 17 -5 0 -10 5 -10 11 0 5 5 7 12 3 7 -4 8 -3 4 4 -7
12 -40 15 -66 5z"/>
<path d="M3110 3389 c0 -5 -11 -7 -24 -3 -13 3 -27 1 -30 -5 -5 -7 2 -11 16
-12 23 -1 23 -1 -2 -9 -14 -4 -19 -8 -12 -9 7 -1 10 -6 6 -12 -3 -6 0 -15 7
-20 21 -13 29 -11 23 6 -8 19 0 19 19 0 13 -13 15 -10 19 25 2 26 -1 41 -9 44
-7 3 -13 1 -13 -5z"/>
<path d="M3185 3350 c3 -5 8 -10 11 -10 2 0 4 5 4 10 0 6 -5 10 -11 10 -5 0
-7 -4 -4 -10z"/>
<path d="M3215 3303 c0 -14 6 -28 13 -31 6 -2 12 -8 12 -13 0 -6 -4 -7 -10 -4
-6 3 -7 -1 -4 -9 8 -21 21 -20 41 3 9 11 23 17 32 14 13 -4 13 -3 2 5 -7 5
-11 14 -7 20 3 6 1 14 -5 18 -8 4 -9 3 -5 -4 11 -19 -9 -14 -34 8 -30 26 -36
25 -35 -7z"/>
<path d="M970 3310 c13 -8 12 -10 -4 -10 -10 0 -25 -8 -32 -17 -12 -16 -12
-16 -7 5 3 13 1 22 -6 22 -7 0 -9 -5 -5 -12 5 -8 2 -9 -10 -5 -10 4 -15 3 -11
-3 3 -6 -1 -10 -9 -10 -20 0 -69 -46 -62 -58 3 -6 -2 -16 -11 -23 -14 -12 -16
-12 -11 1 4 11 0 16 -12 17 -12 1 -18 -5 -17 -17 1 -10 6 -18 11 -17 6 1 12
-9 13 -23 l2 -25 -7 25 -8 25 -19 -22 c-11 -13 -27 -23 -37 -23 -9 0 -19 -4
-22 -9 -3 -4 12 -5 33 -1 34 6 39 5 40 -14 3 -64 9 -89 28 -107 l21 -21 -11
35 c-6 20 -15 33 -19 31 -4 -3 -8 0 -8 5 0 18 17 13 49 -15 29 -24 41 -46 24
-43 -23 4 -23 -4 1 -36 15 -19 22 -35 17 -35 -6 0 -18 10 -27 23 l-17 22 -66
-31 c-36 -18 -74 -40 -83 -50 -46 -49 -108 -125 -108 -132 0 -4 14 9 30 28 27
31 36 33 31 6 -1 -4 6 -15 16 -23 10 -8 13 -12 7 -9 -6 3 -28 -3 -49 -14 -21
-11 -42 -17 -47 -14 -4 3 -11 -3 -15 -13 -4 -10 -15 -25 -25 -34 -10 -10 -20
-31 -23 -48 -2 -17 -6 -34 -9 -39 -3 -4 1 -37 8 -71 12 -56 11 -63 -3 -68 -37
-12 -60 -28 -130 -92 l-74 -68 10 -104 c6 -60 7 -114 2 -127 -5 -12 -13 -49
-18 -82 -9 -52 -7 -64 11 -98 l21 -38 -55 -81 c-76 -111 -84 -134 -63 -167 10
-14 20 -26 24 -26 3 0 16 16 29 35 29 45 68 50 57 8 -10 -37 -9 -62 6 -79 21
-25 37 -15 54 36 9 28 20 48 24 46 4 -3 8 -34 9 -70 l2 -65 -98 -4 -97 -3 99
-2 98 -2 -4 -25 c-3 -14 -1 -25 3 -25 5 0 9 -5 9 -11 0 -6 -7 -9 -15 -5 -8 3
-15 1 -15 -5 0 -6 -5 -7 -10 -4 -6 4 -7 12 -4 18 4 7 -1 4 -11 -5 -12 -11 -15
-22 -10 -35 16 -37 16 -53 -2 -46 -10 4 -14 2 -9 -5 3 -6 -3 -12 -16 -15 -13
-2 -4 -5 20 -6 25 0 41 -5 37 -11 -3 -5 -12 -7 -19 -4 -8 3 -17 0 -22 -7 -4
-8 -3 -10 4 -5 21 13 34 -5 15 -20 -14 -11 -15 -13 -3 -14 12 0 12 -2 2 -9 -8
-4 -14 -12 -14 -17 -1 -5 -6 -18 -13 -29 -15 -24 -31 -73 -20 -63 4 4 19 -2
33 -12 29 -23 43 -24 89 -8 29 11 35 10 53 -10 14 -15 32 -22 58 -22 48 0 61
10 65 46 6 50 16 65 38 53 16 -8 19 -6 19 10 0 11 -8 25 -17 30 -10 6 -13 10
-8 11 19 0 32 -15 38 -47 6 -30 5 -32 -16 -24 -19 8 -23 5 -25 -12 0 -12 -6
-23 -12 -25 -5 -2 -10 -12 -10 -22 0 -30 46 -21 48 9 1 14 -4 28 -10 33 -10 6
-10 8 0 8 7 0 17 -11 22 -25 5 -14 12 -25 14 -25 3 0 3 6 0 13 -2 7 4 22 16
32 20 18 20 18 20 -3 0 -12 -3 -22 -7 -22 -5 0 -14 -12 -21 -27 -9 -20 -9 -30
-1 -37 9 -8 10 -7 5 2 -4 7 6 30 26 54 18 23 27 39 21 35 -9 -5 -13 -2 -13 8
0 9 5 13 10 10 6 -4 9 -1 8 7 -2 7 3 12 10 10 6 -1 12 5 12 13 0 8 -5 15 -11
15 -5 0 -8 4 -5 9 3 4 -2 17 -10 27 -11 13 -14 14 -11 4 3 -10 -2 -16 -14 -16
-17 0 -17 2 -2 18 8 10 20 15 24 12 5 -3 9 2 9 10 0 9 9 16 20 16 17 0 19 -3
10 -19 -5 -11 -10 -28 -9 -38 0 -10 7 3 16 30 11 33 21 47 34 47 11 0 19 -7
19 -17 0 -23 8 -12 14 19 2 15 -1 29 -7 32 -7 2 2 5 18 5 22 1 26 -2 16 -8
-19 -12 -23 -42 -6 -39 8 2 13 -1 12 -7 -1 -5 -4 -9 -7 -8 -3 1 -6 -9 -6 -22
-1 -16 2 -22 12 -18 8 3 11 9 8 14 -8 13 10 11 24 -3 9 -9 12 -8 12 5 0 9 -5
16 -11 15 -6 -2 -13 5 -14 15 -2 9 1 17 6 17 5 0 9 -4 9 -10 0 -5 8 -10 18
-10 14 0 15 2 2 10 -12 8 -10 10 8 10 13 0 21 -4 17 -9 -3 -5 -1 -13 5 -16 6
-4 10 -3 9 2 -4 20 2 24 18 12 11 -9 14 -10 9 -2 -5 9 -2 11 8 7 13 -5 13 -10
2 -37 -7 -18 -18 -31 -24 -30 -6 2 -9 -4 -5 -13 3 -9 9 -11 12 -6 3 5 14 8 23
6 10 -1 21 2 24 7 3 5 0 8 -7 7 -6 -2 -14 3 -17 11 -3 8 0 11 6 7 7 -4 10 1 7
13 -2 11 3 25 12 33 13 10 19 8 40 -17 16 -20 21 -23 14 -8 -14 29 -14 33 4
33 8 0 15 -6 15 -14 0 -8 4 -17 9 -20 5 -4 7 3 4 14 -7 25 12 26 27 3 11 -17
11 -17 6 0 -3 9 0 17 7 18 7 1 1 4 -13 8 -20 6 -22 8 -8 13 10 4 25 -1 38 -12
13 -11 27 -17 32 -14 5 3 20 -2 33 -10 14 -9 25 -12 25 -7 0 6 29 10 65 10 36
-1 63 -4 60 -9 -3 -4 4 -6 15 -3 23 6 26 -6 8 -26 -10 -11 -10 -12 -1 -7 9 5
13 -1 13 -16 1 -89 2 -93 8 -70 4 13 11 23 16 22 5 -1 13 4 17 12 6 8 9 9 9 1
0 -6 17 -17 38 -24 20 -7 31 -14 25 -16 -7 -3 -13 -11 -13 -18 0 -7 -6 -16
-12 -19 -7 -3 -2 -3 12 0 l25 5 -25 -15 c-20 -12 -21 -15 -7 -16 10 0 16 -4
12 -10 -3 -5 7 -8 24 -7 24 2 31 8 35 31 l6 28 20 -23 c11 -14 19 -19 20 -11
0 20 -36 63 -45 54 -5 -4 -5 -2 -1 5 3 6 2 14 -4 18 -5 3 -10 -2 -10 -11 0
-10 -3 -15 -6 -11 -4 3 -4 13 0 22 4 13 10 14 26 5 11 -6 20 -17 20 -24 0 -8
7 -19 15 -26 8 -7 15 -21 15 -31 0 -20 -15 -25 -25 -9 -8 13 -27 2 -22 -13 1
-5 11 -11 21 -13 29 -4 46 -13 46 -24 0 -16 -50 -12 -56 5 -4 8 -10 15 -15 15
-5 0 -9 -7 -9 -15 0 -8 -4 -15 -9 -15 -5 0 -7 9 -4 20 4 15 2 19 -10 14 -9 -3
-13 -12 -10 -20 3 -8 -1 -14 -11 -14 -10 0 -13 6 -10 15 8 19 -1 19 -32 -1
-14 -10 -24 -13 -23 -8 4 17 -13 44 -24 37 -5 -3 -7 -1 -4 5 4 5 3 21 -2 34
-10 23 -10 23 -10 -4 -1 -15 -7 -30 -13 -34 -9 -6 -5 -10 11 -14 14 -3 26 -12
29 -20 3 -13 2 -13 -7 0 -10 13 -11 13 -11 0 0 -13 -1 -13 -10 0 -8 12 -10 12
-10 1 0 -10 -10 -12 -42 -8 -28 4 -37 3 -27 -3 18 -10 656 -16 666 -6 7 6 -16
10 -57 8 -19 -1 -21 1 -10 8 8 5 18 6 23 3 6 -4 7 6 3 23 -4 18 -3 24 2 16 5
-8 15 -13 23 -12 29 4 41 0 36 -14 -3 -8 4 -21 18 -30 21 -14 24 -14 29 1 4 9
1 21 -5 27 -8 8 -13 8 -16 -1 -8 -21 -22 -14 -16 7 3 12 11 18 17 15 6 -3 19
-8 29 -11 19 -7 22 -24 7 -42 -5 -7 0 -3 13 9 22 20 22 20 3 34 -11 8 -16 18
-13 22 4 3 14 -2 22 -13 10 -13 14 -15 15 -5 0 11 3 11 15 1 13 -11 14 -10 10
3 -4 8 -1 18 5 22 6 3 10 3 9 -2 -5 -27 1 -35 16 -23 8 7 15 9 16 4 0 -5 4 0
9 11 8 19 9 19 9 -2 1 -23 -28 -39 -66 -34 -11 1 -24 -3 -28 -8 -3 -6 0 -11 7
-12 7 0 4 -4 -7 -9 -14 -6 7 -9 65 -10 137 -3 222 0 234 8 14 9 56 10 56 2 0
-18 26 -4 27 14 1 12 -1 15 -4 9 -3 -7 -9 -13 -14 -13 -6 0 -8 4 -5 9 3 4 -3
8 -14 7 -11 0 -18 4 -17 9 1 6 5 9 9 8 4 -2 5 3 2 11 -3 8 -1 17 5 20 5 4 13
-4 16 -15 7 -20 8 -21 17 -5 8 14 13 15 24 5 12 -10 13 -9 8 5 -3 9 -10 16
-16 16 -5 0 -7 4 -3 9 3 5 0 13 -6 17 -9 5 -10 0 -6 -15 3 -14 1 -21 -6 -18
-11 3 -18 67 -8 67 2 0 10 -8 17 -17 12 -17 14 -17 27 1 11 15 16 16 22 6 5
-8 4 -11 -2 -7 -13 8 -24 -18 -17 -38 5 -13 8 -13 18 -2 15 19 46 29 46 16 0
-7 32 -9 89 -7 49 2 87 6 84 11 -2 4 10 7 27 7 18 0 33 -6 36 -15 8 -20 44
-19 44 1 0 9 -5 12 -12 8 -6 -4 -8 -3 -5 2 8 13 77 17 77 4 0 -5 5 -10 12 -10
6 0 19 -6 28 -13 9 -6 1 2 -17 18 -30 27 -47 65 -23 50 6 -3 10 -2 10 3 0 6
15 11 33 12 43 2 102 7 102 10 0 3 38 11 83 17 23 3 42 10 42 14 0 5 6 9 14 9
7 0 25 9 39 20 20 16 27 17 33 8 4 -7 4 -10 0 -6 -8 6 -46 -21 -46 -33 0 -3 7
-6 15 -6 8 0 15 4 15 9 0 5 5 6 10 3 7 -4 7 -12 0 -24 -10 -19 7 -81 22 -81 5
0 2 14 -7 30 -16 32 -4 42 15 13 9 -15 10 -14 4 6 -5 19 -3 23 10 18 9 -4 16
-2 16 3 0 6 -10 10 -23 10 -28 0 -32 27 -5 36 21 6 38 -2 38 -20 0 -8 6 -19
14 -25 11 -9 15 -8 20 5 9 23 7 31 -4 14 -8 -12 -10 -11 -10 8 0 28 25 29 40
2 11 -21 50 -28 50 -9 0 5 -4 8 -9 5 -4 -3 -16 3 -26 14 -10 12 -13 20 -7 20
7 0 12 -5 12 -11 0 -6 6 -9 12 -7 16 6 33 -11 42 -39 5 -15 12 -19 32 -15 22
4 24 6 10 14 -9 5 -21 6 -28 2 -7 -4 -8 -3 -4 4 4 7 19 11 34 10 36 -2 47 -9
31 -19 -10 -6 -5 -9 16 -9 20 0 26 3 17 9 -10 6 -7 10 12 13 14 3 27 0 29 -6
3 -8 13 -8 38 1 19 6 46 9 62 6 18 -3 27 -1 27 7 0 7 6 10 13 7 7 -3 26 1 42
7 28 12 27 12 -23 12 -36 0 -52 -4 -52 -13 0 -9 -7 -10 -22 -5 -13 4 -36 6
-53 5 -16 -1 -46 -2 -65 -2 -19 0 -46 0 -60 0 -20 -1 -22 1 -10 9 16 11 19 10
-40 14 -14 1 -36 7 -50 13 -14 6 -31 8 -38 6 -8 -4 -10 0 -6 11 7 19 58 47
119 66 41 13 74 33 39 24 -11 -3 -30 0 -44 6 -20 8 -12 10 42 7 37 -2 62 1 55
5 -6 4 -40 8 -74 8 -34 0 -73 4 -87 10 -14 5 -51 12 -83 15 -31 4 -71 14 -88
23 l-30 17 60 6 60 6 -65 1 c-36 0 -71 1 -78 1 -16 1 -28 33 -36 103 l-7 57
33 4 33 4 -32 1 c-31 2 -33 4 -33 42 l0 40 48 2 47 1 -42 4 c-48 5 -47 2 -31
90 10 56 9 70 -7 116 -10 29 -25 63 -32 77 -7 14 -13 36 -14 50 0 14 -3 20 -6
13 -3 -9 -10 -7 -24 5 -14 14 -19 34 -20 83 -3 102 13 144 93 240 57 69 55 80
-22 106 -36 12 -65 23 -65 23 0 1 -13 5 -30 8 -32 7 -87 8 -233 3 -92 -3 -93
-3 -152 -47 -33 -24 -62 -44 -64 -44 -3 0 -7 8 -9 18 -3 11 -5 8 -6 -9 -1 -16
-10 -30 -26 -39 -22 -12 -24 -18 -19 -54 3 -23 13 -56 21 -75 9 -19 19 -69 23
-110 4 -42 8 -65 10 -51 l2 25 8 -25 c12 -39 11 -50 -5 -50 -11 0 -15 -11 -13
-42 l1 -43 4 38 c5 45 17 47 81 10 26 -15 48 -27 49 -28 9 -4 11 -70 4 -83 -9
-14 -11 -14 -12 -2 -1 8 -4 2 -8 -15 -5 -23 -12 -30 -31 -31 -13 -1 -26 -7
-28 -13 -3 -8 -9 -6 -17 6 -12 15 -11 22 2 43 9 15 10 20 2 13 -7 -7 -25 -13
-39 -13 -42 0 -108 -89 -97 -131 3 -10 0 -20 -5 -21 -11 -4 -12 -166 -2 -193
4 -11 -1 -15 -17 -16 -21 -1 -21 -2 -4 -6 47 -10 50 -15 15 -26 l-35 -12 -3
-163 c-1 -97 1 -161 7 -158 5 3 15 -2 22 -11 12 -15 12 -16 -1 -8 -26 16 -35
17 -554 21 -355 3 -513 0 -522 -7 -11 -9 -13 33 -14 225 l0 236 63 1 c65 1 63
4 -16 14 -40 5 -46 9 -37 20 13 16 9 321 -5 363 -7 22 -6 22 79 22 l86 0 1
-32 c1 -31 1 -31 8 -8 13 44 5 49 -92 52 -58 2 -92 7 -94 15 -2 6 8 13 24 16
27 4 27 4 2 6 -23 1 -28 9 -48 80 -18 61 -21 86 -13 113 5 19 6 55 2 81 -6 42
-5 46 14 50 19 4 18 4 -3 6 -23 1 -23 3 -17 60 4 35 2 78 -5 104 -7 32 -8 59
-1 91 7 33 6 48 -2 54 -6 4 84 9 199 12 l210 6 -207 2 c-115 1 -208 4 -208 7
0 3 30 34 67 68 211 197 238 226 224 239 -12 11 -13 10 -8 -4 7 -20 -18 -45
-28 -28 -4 6 -1 17 5 25 24 29 -10 15 -44 -17 -18 -18 -86 -84 -149 -147
l-116 -114 -33 28 c-19 16 -32 35 -30 46 2 9 -7 24 -19 33 l-22 15 26 38 c15
21 69 92 122 158 52 66 95 125 95 130 0 6 -4 16 -9 23 -12 19 -38 1 -76 -51
-16 -23 -69 -90 -117 -150 -48 -60 -87 -117 -87 -126 1 -9 4 -29 8 -46 7 -32
-14 -80 -30 -69 -5 3 -9 -2 -9 -10 0 -9 -5 -16 -11 -16 -5 0 -8 4 -5 8 2 4 1
14 -4 22 -5 9 -5 19 2 27 5 7 -18 0 -52 -14 -34 -15 -65 -36 -69 -46 -6 -17
-8 -16 -19 7 -6 14 -16 26 -20 26 -15 0 -85 60 -104 88 -11 17 -16 39 -13 61
5 40 -3 59 -17 40 -8 -11 -9 -10 -4 4 3 9 2 17 -2 17 -4 0 -14 10 -21 22 -11
17 -5 15 23 -10 20 -17 41 -32 45 -32 13 0 21 43 11 55 -6 7 -7 15 -3 19 4 3
-2 13 -13 21 -16 13 -16 14 -1 9 22 -8 22 13 0 40 -10 12 -2 8 17 -9 19 -16
37 -31 39 -32 2 -2 1 -6 -3 -10 -4 -4 -11 -1 -15 6 -6 9 -11 10 -15 2 -8 -13
-2 -14 81 -15 33 -1 59 3 56 7 -2 4 6 5 19 2 13 -3 37 1 53 9 17 9 23 16 15
17 -8 1 -4 4 10 8 19 6 29 3 42 -13 21 -26 24 -9 3 20 -8 12 -11 24 -8 28 8 8
-35 54 -67 71 -14 7 -41 15 -60 19 -31 5 -32 5 -10 -5 14 -6 33 -12 43 -14 18
-4 77 -43 77 -51 0 -7 -38 15 -45 26 -3 6 -11 10 -16 10 -6 0 -7 -5 -4 -10 3
-6 -10 -1 -29 11 -20 12 -42 19 -50 16 -10 -4 -12 0 -9 14 5 16 0 19 -28 19
-26 0 -30 -3 -19 -10z m500 -45 c-9 -11 -16 -13 -23 -6 -7 7 -6 15 3 26 9 11
16 13 23 6 7 -7 6 -15 -3 -26z m-571 -19 c10 -12 8 -13 -8 -9 -12 3 -18 9 -15
14 7 12 10 11 23 -5z m133 -3 c30 -36 30 -47 0 -19 -18 17 -32 31 -32 33 0 9
19 1 32 -14z m6 -89 c2 -1 -1 -5 -6 -8 -5 -3 -26 13 -48 36 l-39 42 45 -34
c25 -19 46 -35 48 -36z m-232 -244 c-14 -26 -26 -37 -29 -29 -2 8 -2 3 0 -9 2
-15 0 -21 -6 -17 -7 3 -8 0 -5 -10 4 -8 16 -18 28 -21 11 -3 34 -23 51 -43
l29 -36 -29 26 c-38 33 -65 43 -65 24 0 -8 6 -15 13 -15 8 0 22 -9 32 -20 10
-11 23 -20 30 -20 21 0 46 -35 34 -47 -8 -8 -7 -13 2 -18 7 -5 10 -4 5 3 -3 6
-2 13 3 16 5 4 12 2 16 -4 4 -6 10 -8 15 -5 4 3 13 -2 20 -10 7 -8 16 -13 20
-10 4 3 7 -3 6 -12 0 -10 4 -18 11 -18 7 0 18 -6 25 -14 10 -10 10 -12 0 -7
-21 12 -8 -31 18 -59 13 -14 26 -23 28 -20 7 7 32 -15 32 -27 0 -6 -8 -4 -17
3 -16 13 -17 12 -4 -3 18 -23 33 -13 25 17 -7 27 20 90 46 108 9 7 20 22 24
35 4 12 12 19 18 16 7 -4 8 -2 4 4 -4 7 -3 12 3 12 5 0 13 10 16 21 6 17 9 19
16 8 12 -20 11 -41 -2 -33 -7 4 -9 0 -5 -12 3 -11 -1 -41 -8 -69 -12 -42 -14
-45 -15 -20 -1 24 -3 27 -12 15 -9 -13 -10 -13 -6 0 2 8 10 14 16 12 17 -3 13
15 -4 22 -10 3 -17 -3 -21 -20 -5 -20 -9 -23 -16 -12 -6 8 -7 4 -3 -12 3 -14
2 -51 -3 -83 -7 -46 -6 -61 5 -73 8 -8 19 -14 24 -14 5 0 9 -8 9 -17 0 -11 -3
-14 -8 -7 -9 13 -45 27 -38 15 3 -5 -1 -12 -10 -15 -8 -3 -12 -10 -9 -16 3 -5
3 -10 -2 -10 -14 0 -14 -142 1 -229 9 -58 19 -89 32 -98 10 -7 14 -13 10 -13
-5 0 -25 14 -46 30 -21 17 -43 30 -49 30 -6 0 -10 10 -8 23 2 12 2 16 0 10 -6
-17 -14 -16 -42 7 -15 13 -22 27 -18 40 3 11 1 20 -4 20 -5 0 -9 -8 -9 -17 0
-9 -3 -14 -6 -10 -7 6 9 59 39 130 14 34 23 44 28 35 7 -10 9 -10 9 2 0 13 1
13 10 0 9 -13 10 -13 10 1 0 8 -6 21 -12 28 -11 10 -9 11 7 6 20 -7 20 -6 0
12 -12 10 -38 38 -60 63 l-39 45 50 -47 c27 -27 56 -48 64 -48 8 0 -7 20 -33
45 -46 43 -65 71 -29 44 9 -8 -1 5 -23 27 -22 22 -65 70 -95 105 -63 74 -117
118 -188 150 -59 27 -84 58 -53 66 11 3 17 11 14 18 -6 17 71 74 110 82 15 3
30 10 33 15 3 5 8 7 10 5 3 -2 -6 -23 -20 -47z m84 -8 c0 -8 -5 -10 -12 -6
-10 6 -10 4 0 -7 6 -7 12 -20 12 -28 0 -22 -27 18 -36 53 -6 26 -6 27 15 14
11 -7 21 -19 21 -26z m3 -64 c12 -10 18 -18 14 -18 -5 0 1 -13 12 -29 12 -16
21 -35 21 -42 0 -7 -6 -5 -14 7 -8 10 -18 16 -22 11 -4 -4 -2 -7 4 -7 7 0 12
-6 12 -14 0 -7 7 -19 15 -26 13 -11 13 -15 3 -21 -14 -9 -71 38 -63 51 3 4
-15 29 -40 56 -25 26 -45 49 -45 51 0 2 8 3 18 3 14 0 14 2 3 9 -12 8 -12 13
4 37 l18 27 19 -39 c10 -21 29 -47 41 -56z m14 30 c-3 -8 -6 -5 -6 6 -1 11 2
17 5 13 3 -3 4 -12 1 -19z m322 -63 c1 -16 -1 -17 -9 -5 -7 12 -10 8 -10 -14
0 -36 -59 -131 -72 -118 -6 6 -6 17 1 30 6 10 7 22 4 26 -3 3 -1 6 6 6 9 0 9
5 0 21 -9 18 -6 25 20 51 16 16 33 39 37 51 7 22 8 22 15 -3 4 -14 7 -34 8
-45z m-88 43 c-1 -5 -1 -17 -1 -28 0 -17 -5 -19 -25 -14 -20 5 -24 3 -20 -9 4
-9 -1 -16 -14 -20 -16 -4 -21 0 -21 15 0 11 -4 16 -11 12 -7 -4 -10 1 -7 12 5
27 100 57 99 32z m129 -33 c0 -20 -27 -8 -33 16 -4 16 -2 17 14 8 10 -5 19
-16 19 -24z m-310 -20 c12 -13 25 -24 29 -23 6 1 49 -16 82 -32 9 -5 22 -4 28
1 6 5 5 2 -3 -7 -19 -22 -69 -13 -122 22 -46 30 -73 64 -51 64 8 0 24 -11 37
-25z m160 -165 c-6 -12 -14 -20 -17 -17 -2 3 1 14 8 26 17 26 24 19 9 -9z
m-50 -67 c12 10 12 9 1 -5 -7 -10 -14 -18 -15 -18 -2 0 -13 12 -27 28 l-24 27
26 -22 c20 -19 28 -20 39 -10z m100 -38 c0 -37 -4 -65 -10 -65 -5 0 -10 12
-10 28 0 33 11 102 16 102 2 0 4 -29 4 -65z m17 3 c-3 -8 -6 -5 -6 6 -1 11 2
17 5 13 3 -3 4 -12 1 -19z m-70 -280 c-3 -8 -6 -5 -6 6 -1 11 2 17 5 13 3 -3
4 -12 1 -19z m1673 -4 c0 -16 -16 -19 -25 -4 -8 13 4 32 16 25 5 -4 9 -13 9
-21z m90 1 c0 -8 -4 -15 -9 -15 -13 0 -22 16 -14 24 11 11 23 6 23 -9z m-1737
-125 c4 -32 3 -47 -2 -35 -11 28 -23 124 -12 105 5 -8 11 -40 14 -70z m41
-125 c73 -153 77 -166 61 -198 -8 -16 -15 -36 -15 -43 0 -19 -37 -37 -43 -21
-3 7 -6 5 -6 -5 -1 -10 -6 -18 -12 -18 -6 0 -8 7 -5 17 4 10 4 14 0 10 -4 -4
-13 -2 -20 4 -15 12 -29 -5 -18 -22 4 -8 9 -7 15 2 6 10 9 10 9 2 0 -23 -33
-33 -48 -15 -7 10 -11 11 -7 5 11 -22 -5 -36 -23 -21 -13 11 -14 11 -8 0 7
-11 4 -12 -13 -3 -30 16 -47 51 -30 62 7 4 10 11 7 15 -8 7 18 36 62 69 l33
24 17 -21 c13 -17 19 -18 25 -8 5 8 4 11 -3 6 -13 -8 -31 23 -25 44 3 11 2 12
-4 3 -7 -10 -17 -10 -44 -1 -18 6 -41 13 -49 16 -8 3 -27 4 -42 3 -17 -2 -28
2 -28 10 0 10 -3 10 -12 1 -14 -14 -88 -16 -88 -3 0 6 5 13 10 16 6 4 8 10 6
14 -3 4 -1 12 3 19 9 14 136 19 153 5 7 -6 21 -9 30 -8 9 2 19 -3 22 -11 3 -8
-1 -14 -9 -14 -8 0 -15 4 -15 9 0 5 -10 7 -22 3 -13 -3 -19 -1 -15 5 4 7 -19
11 -66 12 -50 1 -67 -2 -57 -9 11 -7 11 -10 2 -10 -7 0 -10 -4 -7 -10 3 -5 1
-10 -6 -10 -7 0 -10 -2 -7 -5 3 -3 22 2 43 11 25 10 51 13 74 9 55 -10 101
-28 101 -40 0 -5 5 -3 10 5 5 8 9 22 9 30 0 10 -3 8 -9 -5 -7 -15 -9 -10 -9
23 -1 24 4 52 9 62 15 28 48 20 64 -15z m-326 -78 c-13 -26 -27 -47 -31 -47
-10 0 -9 3 23 57 32 54 36 49 8 -10z m405 -22 c4 -8 2 -17 -2 -20 -5 -2 -11 4
-14 15 -6 23 8 27 16 5z m1410 -10 c-3 -9 -8 -14 -10 -11 -3 3 -2 9 2 15 9 16
15 13 8 -4z m-2323 -175 c-16 -33 -30 -50 -42 -50 -10 0 -18 2 -18 5 0 11 74
104 79 100 2 -3 -6 -28 -19 -55z m2828 -142 c-2 -6 -17 -13 -33 -15 -25 -4
-27 -2 -15 11 15 19 54 22 48 4z m-2534 -45 c0 -15 4 -19 15 -15 8 3 -7 -18
-34 -46 -27 -29 -54 -52 -61 -52 -13 0 -28 30 -19 38 3 3 5 -1 5 -8 0 -28 23
8 25 40 5 56 71 98 69 43z m2558 -38 c7 0 19 -18 26 -40 7 -22 17 -50 23 -62
19 -36 1 -44 -32 -13 -17 15 -28 33 -25 39 4 6 0 11 -8 11 -9 0 -16 6 -17 13
0 6 -2 20 -4 30 -2 10 1 14 7 11 6 -4 8 2 3 17 -5 18 -4 20 4 9 6 -8 16 -15
23 -15z m-2816 -113 c-9 -8 -26 10 -26 26 1 15 2 15 15 -2 8 -11 13 -21 11
-24z m14 -28 c0 -7 -6 -16 -12 -20 -7 -4 -10 -4 -6 1 4 4 3 13 -2 20 -7 8 -5
12 5 12 8 0 15 -6 15 -13z m421 -15 c-13 -11 -26 -17 -29 -14 -8 8 20 35 37
35 12 -1 11 -5 -8 -21z m123 9 c-3 -4 0 -8 5 -8 6 0 11 5 11 10 0 6 9 10 20
10 13 0 17 -5 14 -14 -6 -16 -42 -18 -60 -4 -7 5 -14 2 -18 -7 -3 -9 -10 -13
-16 -10 -14 9 11 33 32 32 9 -1 14 -5 12 -9z m101 3 c11 -5 25 -4 33 1 8 7 12
7 12 0 0 -5 8 -8 19 -5 10 3 21 1 24 -4 4 -6 -24 -10 -63 -10 -65 -1 -80 4
-63 20 8 8 12 8 38 -2z m-295 -42 c0 -5 -6 -9 -13 -9 -7 0 -20 -16 -29 -36
-16 -35 -16 -36 4 -31 14 4 18 2 14 -9 -3 -8 -1 -14 4 -14 6 0 10 5 10 12 0 9
3 9 11 1 12 -12 10 -15 -36 -55 -19 -16 -20 -15 -23 19 -1 19 -5 40 -9 46 -14
23 -10 50 9 55 10 2 18 10 18 16 0 6 9 12 20 13 11 1 20 -2 20 -8z m964 -115
c-1 -5 5 -13 12 -19 9 -7 11 -15 4 -25 -5 -8 -10 -10 -10 -4 0 5 -7 19 -16 30
-8 10 -12 13 -8 5 5 -9 3 -12 -4 -7 -18 11 -14 35 6 32 9 -2 17 -7 16 -12z
m203 10 c-3 -3 -12 -4 -19 -1 -8 3 -5 6 6 6 11 1 17 -2 13 -5z m339 -13 c0
-11 -4 -17 -8 -15 -4 3 -8 12 -8 20 0 8 4 14 8 14 4 0 8 -9 8 -19z m74 9 c0
-5 -2 -10 -4 -10 -3 0 -8 5 -11 10 -3 6 -1 10 4 10 6 0 11 -4 11 -10z m50 0
c0 -5 -4 -10 -10 -10 -5 0 -10 5 -10 10 0 6 5 10 10 10 6 0 10 -4 10 -10z m84
-22 c6 -4 17 -8 25 -8 11 0 10 4 -4 13 -13 10 -15 16 -6 21 12 8 45 -55 32
-64 -3 -3 -12 -17 -18 -31 -10 -24 -15 -26 -45 -20 -35 7 -45 31 -18 43 12 5
11 7 -4 7 -14 1 -17 7 -13 27 4 22 3 24 -10 12 -8 -8 -15 -24 -16 -36 -2 -26
-17 -30 -17 -4 1 37 68 86 79 57 2 -5 9 -13 15 -17z m-634 7 c0 -8 -4 -15 -10
-15 -5 0 -10 7 -10 15 0 8 5 15 10 15 6 0 10 -7 10 -15z m530 -15 c0 -5 -5
-10 -11 -10 -5 0 -7 5 -4 10 3 6 8 10 11 10 2 0 4 -4 4 -10z m-152 -14 c-7 -8
-15 -12 -17 -11 -5 6 10 25 20 25 5 0 4 -6 -3 -14z m-168 0 c0 -3 -4 -8 -10
-11 -5 -3 -10 -1 -10 4 0 6 5 11 10 11 6 0 10 -2 10 -4z m313 -43 c-3 -9 -9
-11 -15 -5 -5 5 -6 17 -2 26 5 13 9 14 14 5 5 -7 6 -19 3 -26z m-654 14 c8
-10 7 -14 -2 -14 -8 0 -14 6 -14 14 0 7 1 13 2 13 2 0 8 -6 14 -13z m57 -10
c4 -4 2 -7 -5 -7 -7 0 -9 -5 -5 -11 4 -7 1 -10 -7 -7 -20 7 -24 37 -5 34 9 -1
19 -5 22 -9z m20 -26 c-9 -10 -14 -20 -10 -23 10 -10 44 4 44 18 0 8 5 14 11
14 5 0 8 -4 5 -9 -3 -5 1 -11 9 -15 8 -3 15 0 15 6 0 7 7 3 15 -8 15 -18 15
-18 8 0 -4 14 -3 17 6 12 7 -5 22 0 34 10 12 10 16 12 10 4 -23 -25 -14 -32
13 -11 32 25 40 26 48 4 4 -10 4 -14 0 -10 -4 4 -15 0 -25 -9 -22 -20 -99 -32
-99 -15 0 8 -6 9 -17 3 -19 -10 -63 -8 -102 4 -15 4 -22 3 -18 -3 3 -5 0 -10
-8 -10 -8 0 -12 4 -10 8 3 4 -3 10 -13 14 -16 6 -16 7 1 16 13 7 22 7 32 -1
17 -14 59 5 49 22 -5 7 -2 8 5 4 9 -6 9 -12 -3 -25z m521 22 c-4 -3 -2 -12 4
-20 7 -8 8 -13 1 -13 -12 0 -23 26 -15 34 4 3 9 6 11 6 3 0 2 -3 -1 -7z m66
-27 c3 3 10 -4 17 -15 6 -12 9 -21 6 -21 -2 0 -12 -3 -22 -7 -13 -5 -16 -3
-11 10 6 15 -3 22 -25 18 -5 0 -8 6 -8 14 0 12 4 13 19 6 10 -6 21 -8 24 -5z
m107 -16 c0 -13 -11 -13 -30 0 -12 8 -11 10 8 10 12 0 22 -4 22 -10z m-360
-10 c0 -5 -5 -10 -11 -10 -5 0 -7 5 -4 10 3 6 8 10 11 10 2 0 4 -4 4 -10z
m180 -10 c-20 -13 -50 -12 -50 1 0 5 3 8 8 6 4 -3 16 -1 27 3 25 9 35 2 15
-10z m130 10 c0 -5 -5 -10 -11 -10 -5 0 -7 5 -4 10 3 6 8 10 11 10 2 0 4 -4 4
-10z m-196 -12 c-7 -11 -34 -10 -34 1 0 6 9 9 19 8 11 0 17 -5 15 -9z m111 2
c-3 -5 -10 -10 -16 -10 -5 0 -9 5 -9 10 0 6 7 10 16 10 8 0 12 -4 9 -10z"/>
<path d="M1110 2498 c0 -9 5 -20 10 -23 13 -8 13 5 0 25 -8 13 -10 13 -10 -2z"/>
<path d="M1060 2486 c0 -2 7 -9 15 -16 9 -7 15 -8 15 -2 0 5 -7 12 -15 16 -8
3 -15 4 -15 2z"/>
<path d="M1100 2466 c0 -2 8 -10 18 -17 15 -13 16 -12 3 4 -13 16 -21 21 -21
13z"/>
<path d="M1045 2301 c-3 -5 -1 -12 5 -16 5 -3 10 1 10 9 0 18 -6 21 -15 7z"/>
<path d="M1001 2249 c-13 -39 -14 -42 -2 -35 5 4 12 0 14 -6 3 -7 6 6 6 30 1
50 -3 53 -18 11z"/>
<path d="M1040 2210 c0 -29 2 -51 4 -49 8 8 10 88 3 95 -4 4 -7 -17 -7 -46z"/>
<path d="M1061 2205 c0 -11 6 -31 14 -45 18 -31 18 -16 0 30 -9 23 -14 28 -14
15z"/>
<path d="M900 2725 c13 -14 26 -25 28 -25 3 0 -5 11 -18 25 -13 14 -26 25 -28
25 -3 0 5 -11 18 -25z"/>
<path d="M1159 1786 c4 -6 11 -18 14 -26 3 -9 6 -5 6 11 1 16 -4 26 -14 26 -9
0 -11 -4 -6 -11z"/>
<path d="M1100 1780 c-21 -7 -21 -8 -5 -9 11 0 27 4 35 9 18 11 5 11 -30 0z"/>
<path d="M1088 1753 c7 -3 16 -2 19 1 4 3 -2 6 -13 5 -11 0 -14 -3 -6 -6z"/>
<path d="M1050 1730 c0 -5 7 -10 15 -10 8 0 15 5 15 10 0 6 -7 10 -15 10 -8 0
-15 -4 -15 -10z"/>
<path d="M2578 3220 c-22 -20 -23 -43 -3 -60 8 -7 12 -17 8 -24 -3 -6 -3 -8 2
-4 4 4 14 3 21 -3 10 -8 12 -6 9 11 -3 18 0 21 15 17 16 -4 17 -2 9 21 -7 18
-6 27 3 33 7 4 9 11 5 15 -4 4 -14 -1 -23 -12 -14 -17 -15 -17 -10 -1 3 10 2
16 -3 12 -5 -3 -11 -1 -13 3 -1 5 -11 2 -20 -8z m17 -10 c-3 -5 -12 -10 -18
-10 -7 0 -6 4 3 10 19 12 23 12 15 0z"/>
<path d="M2290 3200 c0 -5 5 -10 11 -10 5 0 7 5 4 10 -3 6 -8 10 -11 10 -2 0
-4 -4 -4 -10z"/>
<path d="M2336 3199 c3 -5 12 -9 21 -9 19 0 9 13 -12 16 -8 1 -13 -2 -9 -7z"/>
<path d="M2380 3181 c0 -5 10 -13 22 -17 21 -6 33 -14 66 -44 23 -20 62 -17
79 6 12 16 11 19 -7 26 -11 4 -39 9 -62 11 -38 4 -67 11 -90 24 -5 2 -8 0 -8
-6z"/>
<path d="M2283 3123 c-25 -9 16 -35 47 -31 28 4 29 4 13 -14 -9 -10 -22 -18
-30 -18 -8 0 -22 -8 -31 -17 -16 -16 -15 -16 7 -10 l23 6 -21 -20 c-28 -26
-27 -31 4 -17 23 10 29 20 23 33 -5 9 66 55 85 55 16 0 17 2 7 15 -8 10 -17
12 -23 6 -5 -5 -21 -6 -39 0 -17 4 -34 6 -39 4 -4 -3 -9 -1 -11 3 -1 5 -9 7
-15 5z"/>
<path d="M2180 3098 c0 -4 -3 -7 -7 -6 -16 3 -63 -14 -58 -22 3 -4 -4 -10 -15
-13 -11 -3 -20 -13 -20 -24 0 -10 4 -14 8 -8 7 10 80 48 94 49 3 1 10 4 14 9
4 4 16 7 27 7 11 0 17 3 13 8 -10 10 -56 10 -56 0z"/>
<path d="M2430 3100 c0 -5 6 -10 14 -10 8 0 18 5 21 10 3 6 -3 10 -14 10 -12
0 -21 -4 -21 -10z"/>
<path d="M2730 3102 c-25 -8 -29 -24 -11 -44 18 -18 51 -16 51 4 0 5 4 7 8 4
5 -3 9 1 9 9 0 8 -5 11 -10 8 -6 -3 -15 1 -21 9 -6 8 -18 13 -26 10z"/>
<path d="M1913 3005 c0 -22 2 -30 4 -17 2 12 2 30 0 40 -3 9 -5 -1 -4 -23z"/>
<path d="M1030 3010 l-45 -7 47 -1 c26 -1 50 3 53 8 3 6 3 9 -2 8 -4 0 -28 -4
-53 -8z"/>
<path d="M1147 2996 c-11 -9 -14 -17 -8 -21 13 -7 51 12 51 25 0 14 -22 12
-43 -4z"/>
<path d="M1040 2970 c-26 -8 -23 -10 23 -16 24 -2 27 -1 17 12 -7 7 -13 14
-14 13 0 -1 -12 -5 -26 -9z"/>
<path d="M995 2960 c-3 -5 -1 -10 4 -10 6 0 11 5 11 10 0 6 -2 10 -4 10 -3 0
-8 -4 -11 -10z"/>
<path d="M2605 2960 c6 -10 4 -12 -8 -7 -9 3 -18 0 -21 -9 -3 -9 -1 -12 4 -9
6 3 10 -1 10 -9 0 -23 43 -20 57 3 14 23 5 35 -14 19 -11 -9 -13 -8 -11 2 2 7
-3 15 -11 18 -9 3 -11 0 -6 -8z"/>
<path d="M1141 2955 c1 -19 18 -51 18 -35 0 8 -4 22 -9 30 -5 8 -9 11 -9 5z"/>
<path d="M1912 2930 c0 -19 2 -27 5 -17 2 9 2 25 0 35 -3 9 -5 1 -5 -18z"/>
<path d="M2153 2901 c0 -11 12 -24 25 -30 13 -6 20 -16 17 -21 -3 -6 2 -10 12
-10 32 0 -33 -28 -84 -36 l-48 -8 33 -10 c26 -7 36 -6 43 5 7 11 9 11 9 -3 0
-9 -6 -19 -12 -21 -8 -4 -9 -6 -2 -6 6 -1 17 6 24 14 14 17 46 20 55 5 4 -6
11 -7 17 -4 13 8 37 11 111 13 31 0 57 5 57 10 0 5 -29 9 -64 8 -35 -1 -63 0
-61 2 2 2 -15 13 -38 25 -22 12 -48 35 -57 51 -19 35 -39 44 -37 16z m77 -91
c-8 -5 -22 -10 -30 -10 -13 0 -13 1 0 10 8 5 22 10 30 10 13 0 13 -1 0 -10z"/>
<path d="M2408 2887 c-11 -9 -14 -18 -8 -27 4 -7 6 -20 3 -29 -4 -11 0 -9 10
4 11 13 16 15 17 6 0 -11 3 -11 15 -1 9 7 14 19 11 27 -3 8 -1 11 4 8 6 -3 10
-2 10 3 0 9 -24 22 -38 22 -4 0 -15 -6 -24 -13z"/>
<path d="M2493 2853 c0 -16 -2 -16 38 1 l34 14 -36 -1 c-22 0 -36 -6 -36 -14z"/>
<path d="M2053 2834 c17 -5 25 -26 8 -21 -13 3 -15 -17 -2 -21 6 -2 11 1 11 7
0 6 13 11 29 11 35 0 50 15 18 17 -12 1 -35 4 -52 7 -16 3 -22 3 -12 0z"/>
<path d="M2491 2827 c-61 -16 -66 -37 -9 -37 31 0 39 3 28 10 -12 8 -12 10 5
10 31 0 65 -11 65 -22 0 -5 -4 -6 -10 -3 -5 3 -10 -1 -10 -9 0 -8 5 -18 12
-22 18 -12 59 -14 53 -3 -4 5 4 9 17 10 19 0 20 2 5 8 -10 3 -23 17 -30 30 -7
14 -20 25 -30 27 -9 1 -15 -2 -11 -7 3 -5 0 -9 -6 -9 -6 0 -13 7 -16 15 -7 17
-5 17 -63 2z"/>
<path d="M1968 2815 c-2 -3 -19 -7 -37 -9 -17 -2 -35 -6 -38 -10 -3 -3 -12 -1
-20 5 -10 9 -13 8 -13 -1 0 -7 -7 -10 -15 -6 -9 3 -15 0 -15 -9 0 -8 -8 -15
-17 -15 -15 0 -15 -2 -4 -9 8 -5 24 -7 35 -4 12 2 31 6 44 8 13 2 30 9 39 17
9 7 28 18 42 25 14 6 21 12 15 12 -6 1 -13 -1 -16 -4z"/>
<path d="M1685 2750 c-3 -5 1 -10 9 -10 9 0 16 5 16 10 0 6 -4 10 -9 10 -6 0
-13 -4 -16 -10z"/>
<path d="M1723 2754 c9 -10 76 -11 70 -1 -2 4 -20 7 -40 7 -20 0 -33 -3 -30
-6z"/>
<path d="M1629 2713 c-13 -16 -12 -17 4 -4 16 13 21 21 13 21 -2 0 -10 -8 -17
-17z"/>
<path d="M2596 2713 c-10 -10 -16 -12 -12 -5 4 7 1 12 -9 12 -8 0 -18 -7 -21
-15 -4 -8 -10 -15 -15 -15 -5 0 -27 -11 -49 -25 -44 -27 -70 -31 -88 -13 -9 9
-12 9 -12 0 0 -7 -12 -12 -26 -12 -14 0 -23 -4 -19 -10 3 -5 12 -7 20 -3 8 3
15 0 15 -6 0 -6 -13 -11 -29 -11 -24 0 -29 -5 -33 -30 l-5 -30 26 23 c15 15
45 27 71 31 25 4 52 8 60 9 8 1 30 10 48 20 37 20 52 16 52 -17 0 -22 -29 -59
-31 -40 0 5 -4 -1 -10 -14 -6 -16 -16 -23 -31 -21 -24 3 -68 -20 -68 -35 0 -5
8 -2 18 7 20 18 57 23 47 7 -3 -5 -1 -10 5 -10 6 0 13 7 16 15 4 8 15 15 25
15 10 0 18 3 18 8 -3 20 3 30 22 35 20 5 21 11 15 53 -5 37 -3 49 10 59 9 6
15 17 13 24 -3 8 -10 6 -23 -6z"/>
<path d="M2663 2695 c0 -22 2 -30 4 -17 2 12 2 30 0 40 -3 9 -5 -1 -4 -23z"/>
<path d="M2002 2650 c0 -14 2 -19 5 -12 2 6 2 18 0 25 -3 6 -5 1 -5 -13z"/>
<path d="M2663 2585 c0 -33 2 -45 4 -27 2 18 2 45 0 60 -2 15 -4 0 -4 -33z"/>
<path d="M1912 2600 c0 -14 2 -19 5 -12 2 6 2 18 0 25 -3 6 -5 1 -5 -13z"/>
<path d="M2003 2535 c0 -22 2 -30 4 -17 2 12 2 30 0 40 -3 9 -5 -1 -4 -23z"/>
<path d="M2275 2560 c-4 -6 -11 -8 -16 -5 -5 4 -9 2 -9 -3 0 -5 -16 -17 -35
-28 -19 -10 -37 -25 -40 -34 -3 -9 -19 -16 -42 -18 -43 -3 -51 -8 -35 -24 7
-7 12 -8 12 -2 0 5 28 11 62 12 34 2 66 6 71 9 5 3 12 1 16 -4 3 -5 17 -6 31
-2 24 7 24 7 3 8 -14 1 -23 7 -23 17 0 14 -1 14 -16 0 -8 -9 -30 -16 -47 -16
l-31 0 34 29 c19 16 40 26 47 24 7 -3 13 2 13 10 0 9 8 21 18 26 9 6 12 11 5
11 -6 0 -15 -5 -18 -10z"/>
<path d="M1912 2510 c0 -14 2 -19 5 -12 2 6 2 18 0 25 -3 6 -5 1 -5 -13z"/>
<path d="M2480 2490 c0 -5 5 -10 10 -10 6 0 10 5 10 10 0 6 -4 10 -10 10 -5 0
-10 -4 -10 -10z"/>
<path d="M2002 2470 c0 -14 2 -19 5 -12 2 6 2 18 0 25 -3 6 -5 1 -5 -13z"/>
<path d="M1478 2463 c12 -2 32 -2 45 0 12 2 2 4 -23 4 -25 0 -35 -2 -22 -4z"/>
<path d="M1558 2463 c6 -2 18 -2 25 0 6 3 1 5 -13 5 -14 0 -19 -2 -12 -5z"/>
<path d="M1658 2463 c7 -3 16 -2 19 1 4 3 -2 6 -13 5 -11 0 -14 -3 -6 -6z"/>
<path d="M1698 2463 c6 -2 18 -2 25 0 6 3 1 5 -13 5 -14 0 -19 -2 -12 -5z"/>
<path d="M1788 2463 c23 -2 61 -2 85 0 23 2 4 4 -43 4 -47 0 -66 -2 -42 -4z"/>
<path d="M2328 2463 c6 -2 18 -2 25 0 6 3 1 5 -13 5 -14 0 -19 -2 -12 -5z"/>
<path d="M2403 2463 c9 -2 25 -2 35 0 9 3 1 5 -18 5 -19 0 -27 -2 -17 -5z"/>
<path d="M2001 2294 c0 -11 3 -14 6 -6 3 7 2 16 -1 19 -3 4 -6 -2 -5 -13z"/>
<path d="M1680 2222 c0 -10 7 -19 15 -19 8 0 15 2 15 4 0 3 -7 11 -15 19 -13
14 -15 13 -15 -4z"/>
<path d="M1740 2225 c0 -8 -4 -15 -10 -15 -5 0 -10 -4 -10 -10 0 -5 7 -10 15
-10 9 0 15 9 15 25 0 14 -2 25 -5 25 -3 0 -5 -7 -5 -15z"/>
<path d="M2003 2205 c0 -22 2 -30 4 -17 2 12 2 30 0 40 -3 9 -5 -1 -4 -23z"/>
<path d="M3192 2210 c0 -14 2 -19 5 -12 2 6 2 18 0 25 -3 6 -5 1 -5 -13z"/>
<path d="M1670 2167 c-12 -21 -12 -21 6 -7 10 8 20 15 22 16 2 1 -1 4 -5 7 -5
3 -15 -4 -23 -16z"/>
<path d="M3190 2156 c0 -8 -8 -17 -17 -19 -14 -4 -12 -5 5 -6 16 -1 22 5 22
19 0 11 -2 20 -5 20 -3 0 -5 -6 -5 -14z"/>
<path d="M2620 2151 c0 -6 -19 -12 -42 -14 l-43 -4 48 -1 c36 -2 47 2 47 13 0
8 -2 15 -5 15 -3 0 -5 -4 -5 -9z"/>
<path d="M2087 2139 c7 -7 15 -10 18 -7 3 3 -2 9 -12 12 -14 6 -15 5 -6 -5z"/>
<path d="M1630 2136 c0 -2 9 -6 20 -9 11 -3 18 -1 14 4 -5 9 -34 13 -34 5z"/>
<path d="M2128 2133 c6 -2 18 -2 25 0 6 3 1 5 -13 5 -14 0 -19 -2 -12 -5z"/>
<path d="M2188 2133 c7 -3 16 -2 19 1 4 3 -2 6 -13 5 -11 0 -14 -3 -6 -6z"/>
<path d="M2248 2133 c6 -2 18 -2 25 0 6 3 1 5 -13 5 -14 0 -19 -2 -12 -5z"/>
<path d="M2343 2133 c15 -2 39 -2 55 0 15 2 2 4 -28 4 -30 0 -43 -2 -27 -4z"/>
<path d="M2463 2133 c15 -2 37 -2 50 0 12 2 0 4 -28 4 -27 0 -38 -2 -22 -4z"/>
<path d="M3238 2133 c7 -3 16 -2 19 1 4 3 -2 6 -13 5 -11 0 -14 -3 -6 -6z"/>
<path d="M1873 2093 c9 -2 23 -2 30 0 6 3 -1 5 -18 5 -16 0 -22 -2 -12 -5z"/>
<path d="M2393 2093 c9 -2 23 -2 30 0 6 3 -1 5 -18 5 -16 0 -22 -2 -12 -5z"/>
<path d="M2458 2093 c12 -2 30 -2 40 0 9 3 -1 5 -23 4 -22 0 -30 -2 -17 -4z"/>
<path d="M2001 2044 c0 -11 3 -14 6 -6 3 7 2 16 -1 19 -3 4 -6 -2 -5 -13z"/>
<path d="M1650 2039 c0 -6 9 -9 20 -6 11 3 18 1 15 -3 -3 -5 0 -10 7 -13 7 -2
4 -3 -8 -1 -25 4 -35 -3 -28 -20 5 -13 98 -7 122 7 9 6 12 -5 14 -45 1 -52 2
-52 5 -9 3 24 -1 56 -7 72 -10 24 -15 27 -37 18 -16 -6 -22 -6 -18 1 4 6 -12
10 -39 10 -27 0 -46 -5 -46 -11z m114 -29 c-10 -4 -26 -5 -34 -2 -11 4 -8 8
10 12 31 8 51 -1 24 -10z"/>
<path d="M1630 1989 c0 -11 4 -18 10 -14 5 3 7 12 3 20 -7 21 -13 19 -13 -6z"/>
<path d="M2781 1994 c0 -11 3 -14 6 -6 3 7 2 16 -1 19 -3 4 -6 -2 -5 -13z"/>
<path d="M1684 1948 c-11 -12 -14 -18 -7 -15 17 11 28 -14 12 -27 -19 -15 -21
-33 -4 -33 7 0 11 6 8 13 -6 17 13 27 38 19 20 -7 20 -7 2 -22 -17 -14 -17
-14 0 -9 10 3 22 6 26 6 4 0 8 7 8 15 0 8 -5 15 -12 15 -6 0 -20 7 -31 16 -10
8 -14 13 -7 10 20 -11 25 12 5 23 -15 8 -23 6 -38 -11z"/>
<path d="M2292 1948 c3 -7 13 -13 24 -14 17 -1 17 -1 -1 4 l-20 4 20 9 c19 7
18 8 -3 8 -15 1 -22 -4 -20 -11z"/>
<path d="M2352 1933 c-1 -16 -7 -21 -19 -17 -17 5 -17 5 0 -6 11 -7 17 -24 17
-50 0 -32 4 -40 18 -40 11 0 13 3 5 8 -6 4 -14 34 -16 67 -2 33 -4 50 -5 38z"/>
<path d="M1789 1848 c-2 -31 -1 -54 4 -51 4 2 7 17 7 32 0 15 6 33 13 40 8 9
8 12 0 7 -6 -3 -13 1 -16 11 -2 10 -5 -7 -8 -39z"/>
<path d="M1998 1878 c-3 -7 -18 -12 -34 -11 -27 2 -27 1 -6 -7 12 -5 22 -14
22 -20 0 -6 5 -8 11 -4 8 4 7 9 -2 15 -11 7 -10 9 4 9 9 0 17 7 17 15 0 18 -7
20 -12 3z"/>
<path d="M2090 1881 c0 -5 -10 -12 -22 -14 -17 -3 -14 -5 9 -6 25 -1 31 2 27
14 -7 17 -14 20 -14 6z"/>
<path d="M1893 1873 c9 -2 23 -2 30 0 6 3 -1 5 -18 5 -16 0 -22 -2 -12 -5z"/>
<path d="M1746 1863 c-14 -4 -16 -7 -6 -13 15 -9 40 -2 40 11 0 9 -3 10 -34 2z"/>
<path d="M2130 1850 c8 -5 20 -10 25 -10 6 0 3 5 -5 10 -8 5 -19 10 -25 10 -5
0 -3 -5 5 -10z"/>
<path d="M2270 1851 c0 -5 10 -13 23 -17 21 -7 21 -7 2 -15 -17 -6 -16 -8 10
-9 l30 -2 -30 -8 c-21 -5 -24 -8 -10 -10 11 -1 28 -3 37 -5 15 -3 16 0 7 18
-7 12 -18 30 -27 40 -16 18 -42 23 -42 8z"/>
<path d="M1629 1833 c-15 -2 -37 -16 -50 -31 l-24 -27 25 22 c24 21 70 28 70
10 0 -8 39 0 50 10 6 6 -22 23 -35 21 -5 0 -22 -3 -36 -5z"/>
<path d="M2160 1830 c-5 -3 -5 -11 0 -20 9 -13 10 -13 10 0 0 12 11 15 48 13
53 -3 46 4 -11 9 -20 2 -41 1 -47 -2z"/>
<path d="M1990 1813 c0 -6 -3 -20 -6 -30 -4 -11 -3 -14 3 -7 4 6 22 11 38 10
17 -1 36 3 43 8 8 5 12 4 12 -6 0 -21 -11 -29 -25 -18 -8 6 -22 7 -36 2 l-23
-9 23 -12 c18 -10 27 -10 47 4 24 16 31 39 15 50 -5 3 -12 1 -15 -3 -7 -12
-59 -2 -68 12 -6 8 -8 8 -8 -1z"/>
<path d="M2457 1759 l61 -64 -3 -55 c-3 -41 -1 -48 5 -25 15 57 11 90 -12 111
-13 11 -43 37 -68 59 -34 30 -30 24 17 -26z"/>
<path d="M2213 1791 c1 -14 9 -26 17 -28 10 -3 11 -2 4 4 -7 4 -14 17 -17 28
-5 16 -5 15 -4 -4z"/>
<path d="M2126 1791 c-4 -6 -4 -16 0 -23 5 -8 2 -9 -9 -5 -9 3 -19 2 -22 -3
-4 -6 5 -10 18 -10 14 0 28 7 31 17 8 19 -8 40 -18 24z"/>
<path d="M1817 1775 c3 -8 9 -12 14 -9 12 7 11 11 -5 17 -10 4 -13 1 -9 -8z"/>
<path d="M2167 1783 c-12 -11 -8 -23 7 -23 8 0 16 7 20 15 5 15 -14 21 -27 8z"/>
<path d="M1620 1770 c19 -13 30 -13 30 0 0 6 -10 10 -22 10 -19 0 -20 -2 -8
-10z"/>
<path d="M1711 1761 c-11 -7 -6 -12 20 -19 19 -5 39 -6 44 -3 6 3 -5 7 -24 9
-25 3 -31 6 -20 13 8 5 10 9 4 9 -5 0 -16 -4 -24 -9z"/>
<path d="M1845 1760 c-3 -5 1 -10 9 -10 9 0 16 5 16 10 0 6 -4 10 -9 10 -6 0
-13 -4 -16 -10z"/>
<path d="M1970 1750 c0 -5 -10 -10 -22 -11 -17 -1 -14 -3 11 -11 39 -11 68 5
41 22 -19 13 -30 12 -30 0z"/>
<path d="M1499 1733 c-13 -16 -12 -17 4 -4 16 13 21 21 13 21 -2 0 -10 -8 -17
-17z"/>
<path d="M1564 1739 c-3 -5 6 -9 20 -9 31 0 34 6 6 13 -11 3 -23 1 -26 -4z"/>
<path d="M2350 1730 c-11 -7 -2 -10 29 -10 48 0 51 4 11 13 -14 3 -32 2 -40
-3z"/>
<path d="M1553 1703 c9 -2 23 -2 30 0 6 3 -1 5 -18 5 -16 0 -22 -2 -12 -5z"/>
<path d="M2033 1693 c9 -2 25 -2 35 0 9 3 1 5 -18 5 -19 0 -27 -2 -17 -5z"/>
<path d="M2111 1695 c7 -7 269 -8 276 -1 4 3 -58 6 -137 6 -79 0 -141 -2 -139
-5z"/>
<path d="M2368 1653 c12 -2 32 -2 45 0 12 2 2 4 -23 4 -25 0 -35 -2 -22 -4z"/>
<path d="M2397 1598 c18 -20 28 -24 17 -7 -3 6 -1 15 6 19 8 5 4 8 -13 7 -24
-2 -24 -3 -10 -19z"/>
<path d="M1516 1551 c-7 -11 22 -36 31 -28 3 4 -2 10 -11 13 -14 5 -15 9 -4
15 9 6 9 9 1 9 -6 0 -14 -4 -17 -9z"/>
<path d="M2153 1553 c9 -2 23 -2 30 0 6 3 -1 5 -18 5 -16 0 -22 -2 -12 -5z"/>
<path d="M1621 1547 c2 -1 14 -11 27 -21 12 -11 22 -16 22 -13 0 10 -31 37
-42 37 -6 0 -9 -1 -7 -3z"/>
<path d="M1753 1513 c9 -2 23 -2 30 0 6 3 -1 5 -18 5 -16 0 -22 -2 -12 -5z"/>
<path d="M2395 1500 c3 -5 11 -10 16 -10 6 0 7 5 4 10 -3 6 -11 10 -16 10 -6
0 -7 -4 -4 -10z"/>
<path d="M3453 1483 c15 -2 39 -2 55 0 15 2 2 4 -28 4 -30 0 -43 -2 -27 -4z"/>
<path d="M3563 1483 c15 -2 37 -2 50 0 12 2 0 4 -28 4 -27 0 -38 -2 -22 -4z"/>
<path d="M2420 1456 c0 -9 5 -16 10 -16 6 0 10 4 10 9 0 6 -4 13 -10 16 -5 3
-10 -1 -10 -9z"/>
<path d="M1490 1450 c0 -5 5 -10 11 -10 5 0 7 5 4 10 -3 6 -8 10 -11 10 -2 0
-4 -4 -4 -10z"/>
<path d="M2320 1447 c0 -8 7 -17 15 -21 8 -3 15 -3 15 0 0 3 -7 12 -15 20 -13
13 -15 13 -15 1z"/>
<path d="M1607 1424 c-22 -29 -18 -31 12 -5 12 11 18 21 14 24 -4 3 -16 -6
-26 -19z"/>
<path d="M2380 1420 c19 -13 30 -13 30 0 0 6 -10 10 -22 10 -19 0 -20 -2 -8
-10z"/>
<path d="M2268 1413 c7 -3 16 -2 19 1 4 3 -2 6 -13 5 -11 0 -14 -3 -6 -6z"/>
<path d="M3748 1413 c17 -2 32 -8 32 -13 0 -5 9 -8 19 -7 11 0 17 5 15 9 -3 5
-9 6 -14 3 -5 -3 -11 -1 -15 5 -3 5 -21 9 -38 8 l-32 -1 33 -4z"/>
<path d="M1535 1380 c-8 -13 5 -13 25 0 13 8 13 10 -2 10 -9 0 -20 -4 -23 -10z"/>
<path d="M2435 1370 c28 -12 37 -12 30 0 -3 6 -16 10 -28 9 -21 0 -21 -1 -2
-9z"/>
<path d="M3930 1336 c0 -2 8 -10 18 -17 15 -13 16 -12 3 4 -13 16 -21 21 -21
13z"/>
<path d="M2500 1281 c0 -28 -3 -30 -42 -34 l-43 -4 48 -1 47 -2 0 35 c0 19 -2
35 -5 35 -3 0 -5 -13 -5 -29z"/>
<path d="M1060 1291 c0 -6 4 -13 10 -16 6 -3 7 1 4 9 -7 18 -14 21 -14 7z"/>
<path d="M1204 1289 c-3 -6 0 -17 8 -25 12 -13 17 -13 26 -2 7 9 8 19 1 28 -8
13 -9 12 -7 -2 2 -9 -1 -16 -7 -15 -5 1 -9 8 -9 15 2 15 -3 16 -12 1z"/>
<path d="M820 1275 c0 -8 2 -15 4 -15 2 0 6 7 10 15 3 8 1 15 -4 15 -6 0 -10
-7 -10 -15z"/>
<path d="M1329 1273 c-13 -16 -12 -17 4 -4 16 13 21 21 13 21 -2 0 -10 -8 -17
-17z"/>
<path d="M1388 1278 c9 -9 9 -15 -1 -27 -11 -14 -10 -14 6 -2 13 10 15 17 6
27 -6 8 -14 14 -17 14 -3 0 -1 -5 6 -12z"/>
<path d="M995 1270 c-3 -5 -1 -10 4 -10 6 0 11 5 11 10 0 6 -2 10 -4 10 -3 0
-8 -4 -11 -10z"/>
<path d="M2358 1273 c7 -3 16 -2 19 1 4 3 -2 6 -13 5 -11 0 -14 -3 -6 -6z"/>
<path d="M849 1253 c-13 -16 -12 -17 4 -4 9 7 17 15 17 17 0 8 -8 3 -21 -13z"/>
<path d="M1470 1254 c0 -8 5 -12 10 -9 6 4 8 11 5 16 -9 14 -15 11 -15 -7z"/>
<path d="M3918 1263 c6 -2 18 -2 25 0 6 3 1 5 -13 5 -14 0 -19 -2 -12 -5z"/>
<path d="M809 1233 c-13 -16 -12 -17 4 -4 9 7 17 15 17 17 0 8 -8 3 -21 -13z"/>
<path d="M1828 1243 c6 -2 18 -2 25 0 6 3 1 5 -13 5 -14 0 -19 -2 -12 -5z"/>
<path d="M333 1225 c0 -8 4 -12 9 -9 5 3 6 10 3 15 -9 13 -12 11 -12 -6z"/>
<path d="M883 1230 c-30 -12 -29 -18 2 -12 14 2 25 8 25 13 0 5 -1 9 -2 8 -2
0 -13 -4 -25 -9z"/>
<path d="M962 1220 c-7 -11 -8 -20 -3 -20 9 0 24 30 18 36 -1 2 -8 -6 -15 -16z"/>
<path d="M1298 1233 c12 -2 32 -2 45 0 12 2 2 4 -23 4 -25 0 -35 -2 -22 -4z"/>
<path d="M2378 1233 c7 -3 16 -2 19 1 4 3 -2 6 -13 5 -11 0 -14 -3 -6 -6z"/>
<path d="M816 1198 c3 -5 10 -6 15 -3 13 9 11 12 -6 12 -8 0 -12 -4 -9 -9z"/>
<path d="M3226 1193 c-10 -25 -7 -28 9 -7 8 10 15 14 15 8 0 -7 13 -14 29 -16
22 -3 28 0 26 11 -3 22 -71 25 -79 4z"/>
<path d="M789 1173 c-13 -16 -12 -17 4 -4 9 7 17 15 17 17 0 8 -8 3 -21 -13z"/>
<path d="M2997 1176 c-4 -11 -1 -16 11 -16 9 0 26 -7 36 -15 23 -17 56 -20 56
-4 0 5 -4 7 -10 4 -5 -3 -10 -1 -10 5 0 7 -6 10 -13 7 -8 -3 -20 -1 -28 5 -11
8 -10 9 4 4 11 -4 16 -2 12 5 -4 6 -13 8 -20 5 -7 -2 -17 0 -22 5 -7 7 -12 5
-16 -5z"/>
<path d="M3139 1176 c6 -7 22 -11 36 -8 31 6 30 7 -14 16 -27 5 -31 4 -22 -8z"/>
<path d="M3075 1170 c3 -5 10 -10 16 -10 5 0 9 5 9 10 0 6 -7 10 -16 10 -8 0
-12 -4 -9 -10z"/>
<path d="M3551 1159 c-1 -31 -24 -54 -46 -45 -9 3 -13 2 -10 -4 3 -6 3 -10 -2
-11 -4 0 -17 -2 -29 -4 -18 -4 -20 0 -18 35 1 22 -2 40 -6 40 -5 0 -7 -16 -5
-36 4 -40 -15 -43 -26 -3 -6 21 -7 22 -8 3 -1 -23 41 -74 61 -74 10 0 10 2 -1
9 -7 5 -9 11 -4 14 5 3 15 2 23 -4 8 -5 20 -9 25 -9 6 0 4 4 -3 9 -11 7 -11 9
2 14 8 3 18 2 21 -3 4 -6 14 -10 23 -10 13 0 13 2 -4 16 -17 14 -17 15 -1 10
12 -4 16 -2 11 6 -5 7 0 9 14 6 15 -4 19 -2 15 8 -3 8 -9 14 -13 14 -5 0 -11
10 -13 23 -4 20 -4 19 -6 -4z"/>
<path d="M1498 1163 c7 -3 16 -2 19 1 4 3 -2 6 -13 5 -11 0 -14 -3 -6 -6z"/>
<path d="M3370 1127 c0 -20 -5 -37 -11 -37 -6 0 -8 8 -5 18 5 14 4 14 -9 -2
-8 -11 -23 -21 -33 -23 -59 -10 -168 -19 -176 -15 -5 3 -6 -1 -1 -8 6 -10 2
-11 -19 -6 -14 3 -26 2 -26 -3 0 -4 17 -11 38 -15 49 -8 63 -8 60 2 -4 11 5
14 22 8 8 -3 44 -2 80 3 56 7 59 9 25 11 l-40 2 40 8 c22 5 47 7 56 4 14 -4
16 3 14 36 -3 52 -15 65 -15 17z m-113 -73 c-3 -3 -12 -4 -19 -1 -8 3 -5 6 6
6 11 1 17 -2 13 -5z m-90 -10 c-3 -3 -12 -4 -19 -1 -8 3 -5 6 6 6 11 1 17 -2
13 -5z"/>
<path d="M779 1133 c-13 -16 -12 -17 4 -4 16 13 21 21 13 21 -2 0 -10 -8 -17
-17z"/>
<path d="M2941 1123 c6 -7 19 -12 28 -12 13 1 13 2 -2 6 -9 2 -15 8 -13 12 3
4 -1 8 -9 8 -11 0 -12 -4 -4 -14z"/>
<path d="M296 1111 c-11 -17 46 -68 90 -80 21 -6 64 -10 94 -10 l55 2 -65 7
c-96 10 -135 26 -153 61 -9 19 -17 27 -21 20z"/>
<path d="M1425 1100 c-3 -5 -1 -10 4 -10 6 0 11 5 11 10 0 6 -2 10 -4 10 -3 0
-8 -4 -11 -10z"/>
<path d="M2607 1102 c-8 -17 6 -77 27 -117 20 -38 4 -45 -32 -14 -24 22 -24
21 2 -9 34 -36 57 -42 51 -12 -2 11 0 18 6 15 5 -4 9 -13 9 -21 0 -16 16 -19
25 -4 4 6 10 8 15 5 15 -9 39 6 33 21 -4 10 0 12 11 8 9 -3 16 -1 16 6 0 13
-71 10 -81 -4 -4 -5 -15 -6 -25 -2 -13 5 -15 9 -6 18 26 26 2 109 -32 114 -9
1 -17 -1 -19 -4z m123 -138 c0 -10 -6 -14 -14 -11 -7 3 -19 0 -25 -6 -8 -8
-11 -8 -11 1 0 10 23 25 48 31 1 1 2 -6 2 -15z"/>
<path d="M3107 1095 c-4 -8 -2 -17 3 -20 6 -4 10 3 10 14 0 25 -6 27 -13 6z"/>
<path d="M2826 1087 c3 -10 9 -15 12 -12 3 3 0 11 -7 18 -10 9 -11 8 -5 -6z"/>
<path d="M643 1057 c2 -29 19 -38 23 -12 1 8 -2 13 -6 10 -5 -3 -11 3 -14 12
-2 10 -4 5 -3 -10z"/>
<path d="M1385 1070 c-4 -6 1 -7 11 -3 12 4 15 3 10 -5 -5 -8 1 -12 15 -12 22
0 22 0 3 15 -23 17 -31 18 -39 5z"/>
<path d="M2033 1073 c-17 -6 -17 -20 0 -20 8 0 14 6 14 14 0 7 -1 13 -1 12 -1
0 -7 -3 -13 -6z"/>
<path d="M616 1062 c-2 -4 -1 -14 5 -22 7 -12 9 -10 9 8 0 23 -5 28 -14 14z"/>
<path d="M3071 1063 c-1 -9 -17 -13 -47 -13 -25 0 -43 -4 -40 -8 2 -4 -11 -6
-30 -4 -18 2 -32 8 -29 12 2 4 -6 5 -19 3 -33 -7 -29 -33 5 -33 15 0 31 -4 34
-10 3 -5 12 -10 18 -10 7 0 6 4 -3 11 -11 7 -4 8 25 4 22 -3 34 -2 28 1 -20 9
-15 24 7 24 11 0 20 -4 20 -10 0 -5 17 -10 37 -10 31 0 34 2 21 13 -9 6 -18
19 -21 27 -3 9 -6 10 -6 3z"/>
<path d="M3400 1060 c-12 -8 -10 -10 8 -10 13 0 20 4 17 10 -7 12 -6 12 -25 0z"/>
<path d="M2566 1027 c3 -10 9 -15 12 -12 3 3 0 11 -7 18 -10 9 -11 8 -5 -6z"/>
<path d="M2805 1027 c-11 -7 -21 -22 -23 -34 -2 -17 1 -20 16 -16 11 2 23 0
26 -6 12 -18 36 -13 29 6 -4 10 -2 14 5 9 6 -3 13 -2 16 3 4 5 17 8 31 5 13
-2 27 1 31 7 5 9 -7 10 -44 7 -28 -3 -51 -2 -50 1 3 32 -5 36 -37 18z m25 -12
c0 -8 -7 -15 -16 -15 -14 0 -14 3 -4 15 7 8 14 15 16 15 2 0 4 -7 4 -15z"/>
<path d="M618 1013 c7 -3 16 -2 19 1 4 3 -2 6 -13 5 -11 0 -14 -3 -6 -6z"/>
<path d="M2538 1003 c7 -3 16 -2 19 1 4 3 -2 6 -13 5 -11 0 -14 -3 -6 -6z"/>
<path d="M2768 953 c7 -3 16 -2 19 1 4 3 -2 6 -13 5 -11 0 -14 -3 -6 -6z"/>
<path d="M290 889 c0 -5 5 -7 10 -4 6 3 10 8 10 11 0 2 -4 4 -10 4 -5 0 -10
-5 -10 -11z"/>
<path d="M364 891 c3 -5 61 -7 128 -5 93 3 125 1 137 -9 18 -16 94 -31 86 -17
-3 5 5 11 17 14 13 3 2 3 -24 2 -27 -2 -48 0 -48 5 0 5 115 9 255 9 173 0 255
-3 255 -11 0 -7 -32 -9 -97 -5 l-98 5 79 -9 c84 -10 112 -20 54 -20 -32 0 -36
-2 -31 -22 4 -18 2 -20 -6 -8 -5 8 -13 11 -17 7 -4 -4 -2 -13 4 -19 9 -9 15
-9 24 0 7 7 30 11 52 11 23 -1 33 -3 24 -6 -33 -8 -18 -18 28 -18 37 0 48 -4
50 -17 2 -15 -5 -18 -49 -17 l-52 2 40 7 c36 7 37 7 10 10 -81 6 -169 8 -157
3 24 -10 1 -22 -31 -16 l-32 6 23 -19 23 -19 -28 -2 c-15 -2 -53 -5 -83 -8
-46 -4 -51 -3 -30 6 14 6 39 12 55 13 17 0 30 4 30 7 0 3 7 14 15 24 14 17 13
18 -7 13 -13 -3 -27 0 -33 7 -8 10 -7 14 7 18 10 2 -20 2 -67 -1 -103 -6 -102
5 1 17 l74 8 -61 2 c-33 0 -64 5 -70 10 -27 25 -96 18 -80 -8 4 -6 11 -9 15
-7 4 3 13 0 21 -5 11 -7 1 -8 -30 -4 -59 7 -193 15 -158 9 17 -3 25 -10 22
-18 -9 -23 70 -44 177 -47 31 -1 67 -8 80 -15 24 -13 24 -13 2 -14 -12 0 -25
-4 -28 -10 -4 -6 -73 -11 -168 -12 -89 -1 -143 -3 -120 -5 29 -3 43 -9 46 -21
4 -16 5 -15 6 1 0 9 6 17 11 17 6 0 11 -30 12 -67 l2 -68 6 70 c6 67 6 68 11
25 l6 -45 1 43 c1 30 6 42 17 42 12 0 15 -15 16 -72 1 -44 4 -63 8 -49 l6 24
15 -29 14 -29 7 40 6 40 2 -36 c0 -22 7 -39 15 -42 12 -5 16 5 19 41 3 45 3
45 5 -11 1 -36 6 -56 12 -52 6 4 11 -11 11 -37 l2 -43 6 40 6 40 8 -34 c8 -40
14 -37 32 16 l14 38 2 -60 2 -60 7 60 7 60 2 -65 c2 -63 2 -64 15 -35 14 30
15 29 29 -15 3 -8 6 -3 6 11 1 15 8 30 17 33 8 3 12 10 9 16 -3 5 -1 10 4 10
6 0 12 -12 12 -27 2 -22 3 -19 9 12 l7 40 3 -35 c3 -27 5 -22 10 25 l7 60 3
-70 c1 -38 5 -59 7 -45 7 36 20 46 28 21 3 -12 11 -19 16 -16 8 6 14 -16 10
-38 -1 -5 3 -6 9 -2 5 3 10 13 10 21 0 20 18 18 23 -3 3 -12 5 -10 6 7 1 14 6
32 12 40 8 12 10 12 7 -5 -2 -11 5 -28 15 -38 11 -11 17 -27 14 -39 -3 -11 0
-26 6 -33 10 -10 14 -7 24 14 8 19 12 21 12 8 2 -38 21 -3 23 41 1 31 4 17 8
-38 6 -78 7 -81 10 -30 l3 55 7 -55 7 -55 1 58 c1 31 -2 57 -8 57 -5 0 -7 7
-3 17 11 29 26 -26 28 -110 4 -107 12 -107 14 -1 2 101 19 152 22 64 l2 -55 7
50 c8 55 9 50 16 -45 2 -36 8 -78 13 -95 8 -25 9 -20 9 35 -2 114 2 151 12
145 5 -3 12 7 16 22 10 45 12 50 14 23 3 -50 7 -70 13 -77 6 -6 8 6 12 84 2
50 15 32 16 -23 1 -48 3 -53 9 -29 7 27 15 18 11 -12 -1 -7 7 -13 18 -13 11 0
22 -6 24 -12 3 -7 6 3 7 22 1 34 2 34 11 10 6 -14 8 -32 6 -41 -3 -9 -1 -23 4
-30 5 -9 8 12 7 53 -2 78 7 99 17 36 16 -109 25 -122 32 -50 2 20 9 42 15 47
8 7 9 4 4 -9 -9 -25 4 -107 15 -100 5 3 10 44 11 92 l2 87 6 -95 6 -95 4 75
c2 48 5 61 7 38 5 -50 23 -49 23 1 0 22 3 42 8 45 4 2 7 -10 7 -27 -1 -18 2
-48 6 -67 6 -31 7 -29 9 23 3 72 3 74 13 83 4 4 8 -24 8 -62 2 -61 3 -64 9
-29 4 22 8 31 9 20 6 -46 13 -80 18 -85 3 -3 4 7 1 22 -3 15 -1 25 3 22 5 -3
9 -15 9 -26 0 -34 13 -12 21 35 4 29 7 5 8 -77 0 -66 3 -117 6 -115 2 3 5 51
6 107 3 108 15 141 18 45 1 -69 11 -85 11 -18 0 55 8 57 12 3 2 -36 16 -44 17
-10 0 9 1 32 1 50 1 26 5 32 18 30 9 -2 17 -12 17 -23 -1 -11 4 -24 10 -28 7
-6 6 -10 -2 -14 -13 -4 -19 -53 -7 -53 18 0 44 23 44 39 0 11 7 22 16 25 13 5
14 4 6 -7 -9 -10 -8 -18 3 -33 9 -12 14 -14 15 -6 0 8 5 10 13 6 8 -6 8 -3 -1
9 -8 9 -11 21 -7 27 3 5 0 10 -7 10 -9 0 -9 3 2 10 9 6 10 10 3 10 -6 0 -15
-5 -18 -10 -13 -20 -25 -9 -24 23 1 26 2 28 7 10 5 -17 11 -20 22 -13 25 16
31 11 27 -24 -3 -24 0 -37 10 -40 23 -9 30 -7 13 4 -12 7 -12 12 -3 21 17 17
46 -8 40 -33 -3 -10 -1 -18 4 -18 5 0 9 6 9 13 0 8 3 7 10 -3 5 -9 5 -19 -2
-27 -8 -10 -7 -12 6 -7 9 3 17 11 17 18 1 6 5 -5 9 -24 l7 -35 2 43 c0 24 -2
41 -6 39 -8 -5 -31 15 -36 30 -1 5 -6 7 -11 5 -5 -2 -3 4 4 13 12 14 11 18 -1
25 -12 8 -11 12 6 27 11 10 15 12 8 4 -15 -17 10 -46 29 -35 10 6 10 4 2 -7
-13 -17 -12 -40 1 -36 6 1 13 -23 16 -53 6 -54 6 -54 7 20 5 180 31 248 34 88
l2 -93 6 100 c6 90 6 93 8 32 2 -61 4 -67 17 -53 8 8 16 30 17 48 1 29 2 28 8
-12 l7 -45 1 43 c1 24 6 41 10 38 4 -2 6 -28 5 -56 -2 -28 0 -49 5 -46 4 2 9
22 10 43 1 21 5 56 9 78 l7 40 6 -45 c6 -54 23 -55 31 -3 5 33 6 29 12 -32 4
-38 8 -82 8 -98 1 -15 6 -27 10 -27 5 0 10 39 10 88 l2 87 12 -60 13 -60 2 50
3 50 7 -40 7 -40 2 39 c2 55 9 41 17 -29 3 -33 8 -62 10 -64 2 -2 5 34 6 80
l2 84 6 -75 c4 -41 7 -58 8 -38 2 35 22 66 22 33 0 -42 22 -211 29 -218 6 -6
14 109 14 201 0 37 12 32 21 -8 2 -14 4 -5 2 20 -2 25 0 65 4 90 l7 45 3 -45
c1 -25 1 -56 0 -69 -1 -14 2 -21 9 -17 7 4 11 -20 14 -71 l3 -78 3 95 c2 77 4
91 13 73 18 -37 28 -27 29 30 1 40 4 32 10 -38 11 -109 16 -133 19 -80 1 32 3
36 10 20 7 -16 9 -13 9 18 1 59 21 43 21 -17 0 -30 4 -57 9 -61 6 -3 9 5 9 17
-1 13 0 39 1 58 l4 35 8 -45 c5 -25 11 -67 15 -95 4 -27 8 -52 10 -54 2 -2 5
56 5 130 1 118 3 127 11 79 5 -30 13 -68 18 -85 l8 -30 2 30 c1 26 3 27 10 10
6 -14 9 7 11 65 2 75 3 79 8 35 6 -49 7 -49 15 -17 4 18 11 30 16 27 5 -3 11
1 13 7 3 7 6 0 8 -17 2 -24 3 -22 9 15 l7 45 2 -60 c2 -44 5 -55 11 -40 5 11
9 14 9 6 1 -11 4 -11 16 -1 19 16 23 5 28 -70 3 -46 4 -42 6 25 2 55 5 74 11
60 7 -17 9 -17 9 -2 1 9 9 17 19 17 14 0 15 -2 2 -10 -12 -8 -12 -12 -2 -18 7
-5 11 -15 9 -23 -2 -8 -2 -11 0 -6 3 4 10 4 15 1 7 -4 8 -2 4 4 -3 6 -3 29 0
52 5 28 10 37 15 28 6 -10 11 -9 22 7 8 10 13 26 10 35 -4 12 -3 12 5 2 5 -8
8 -24 6 -37 -1 -13 6 -31 17 -41 18 -16 19 -16 19 5 0 12 4 19 10 16 6 -3 10
4 10 18 0 14 3 40 8 58 6 31 8 27 13 -31 5 -64 6 -64 9 30 1 52 5 85 7 73 2
-13 8 -23 11 -23 4 0 7 -15 6 -32 -1 -18 2 -42 7 -53 6 -17 8 -16 10 10 1 17
2 35 2 41 0 6 6 11 13 11 13 0 19 -35 15 -77 -2 -13 -1 -13 8 0 6 8 11 29 12
45 2 27 2 28 6 5 9 -51 23 -44 23 12 0 76 18 84 23 11 2 -41 4 -28 6 42 2 67
5 93 11 80 8 -19 9 -19 9 -1 2 35 9 12 16 -49 9 -82 17 -84 14 -5 -2 51 0 65
12 65 15 0 15 -1 17 -89 2 -76 8 -69 16 19 4 38 11 72 17 76 16 9 -15 19 -43
12 -18 -4 -20 -3 -8 6 12 8 7 11 -22 11 -21 0 -38 -4 -38 -8 0 -4 -17 -6 -37
-4 -31 4 -34 6 -18 13 16 6 13 8 -14 8 -23 1 -32 -3 -28 -12 3 -10 -8 -13 -43
-12 -29 0 -46 4 -42 10 3 6 -1 5 -9 -2 -15 -12 -278 -19 -265 -6 4 4 44 10 89
14 l82 6 -72 1 c-41 1 -73 6 -73 12 0 6 -5 10 -11 10 -5 0 -8 -4 -5 -9 4 -5
-3 -7 -15 -4 -18 5 -20 3 -14 -16 6 -20 4 -22 -34 -20 -39 3 -50 18 -21 31 11
5 10 7 -5 7 -11 0 -27 -4 -35 -9 -13 -8 -13 -10 -1 -10 11 0 12 -3 3 -12 -13
-13 -72 -22 -72 -10 0 4 -154 6 -343 6 -188 -1 -333 2 -322 6 11 4 45 5 75 3
l55 -5 -29 16 c-24 13 -50 16 -130 12 -56 -3 -90 -3 -76 0 36 8 45 21 21 29
-43 13 -19 24 62 28 l82 3 -92 2 c-92 2 -119 12 -86 31 23 13 16 13 -24 2 -24
-7 -35 -6 -44 5 -9 11 -48 14 -190 14 -106 0 -180 4 -184 10 -4 6 110 11 322
13 180 1 -76 3 -570 5 -530 1 -896 -2 -893 -7z m866 -11 c0 -5 -5 -10 -11 -10
-5 0 -7 5 -4 10 3 6 8 10 11 10 2 0 4 -4 4 -10z m225 -1 c-22 -4 -60 -6 -85
-3 -32 4 -41 2 -30 -5 19 -13 -60 -7 -85 6 -13 8 19 11 111 11 95 0 119 -2 89
-9z m-11 -41 c-2 -22 9 -23 26 -3 10 12 10 15 0 15 -8 0 -11 2 -8 5 3 3 13 2
22 -1 14 -5 15 -9 4 -15 -27 -17 10 -28 119 -34 72 -4 114 -2 118 4 4 7 -5 8
-26 4 -25 -5 -30 -3 -24 7 5 8 21 11 46 7 22 -3 39 -2 39 3 0 16 34 21 42 5 5
-9 23 -15 43 -15 28 0 33 -3 30 -19 -3 -14 3 -18 26 -17 16 1 29 4 29 9 0 4 4
7 8 7 5 0 9 -7 9 -15 0 -24 -74 -20 -89 5 -13 21 -78 29 -78 10 0 -6 -12 -9
-27 -8 -16 1 -58 -4 -95 -11 -37 -7 -79 -10 -92 -7 -20 5 -23 3 -19 -14 4 -16
0 -20 -18 -20 -17 0 -20 3 -10 9 11 7 11 10 0 17 -7 4 -14 3 -17 -4 -2 -7 -23
-12 -50 -11 -37 0 -43 2 -27 10 16 7 12 8 -17 6 -20 -2 -34 1 -32 5 6 10 1 10
-21 2 -13 -5 -14 -8 -3 -15 8 -5 -6 -8 -37 -8 -27 0 -44 3 -37 6 20 8 14 25
-8 18 -15 -5 -18 -2 -15 13 3 15 -3 19 -32 20 -20 1 -39 4 -42 8 -8 8 109 -1
130 -10 11 -5 19 -1 22 8 4 11 0 16 -11 17 -9 1 3 7 28 14 60 18 95 15 94 -7z
m182 9 c10 -10 -36 -8 -61 3 -15 6 -11 8 17 6 20 -1 40 -5 44 -9z m113 9 c-10
-8 -89 -13 -89 -5 0 5 21 9 47 9 25 0 44 -2 42 -4z m-942 -12 c-3 -3 -12 -4
-19 -1 -8 3 -5 6 6 6 11 1 17 -2 13 -5z m398 -4 c-3 -5 -13 -10 -21 -10 -8 0
-12 5 -9 10 3 6 13 10 21 10 8 0 12 -4 9 -10z m-415 -50 c0 -13 -70 -13 -90 0
-11 7 0 10 38 10 28 0 52 -4 52 -10z m135 0 c4 -6 -10 -10 -34 -10 -22 0 -43
5 -46 10 -4 6 10 10 34 10 22 0 43 -4 46 -10z m922 4 c-3 -3 -12 -4 -19 -1 -8
3 -5 6 6 6 11 1 17 -2 13 -5z m-12 -30 c-21 -10 -23 -12 -6 -8 15 4 21 2 17
-4 -4 -7 3 -8 23 -2 24 6 29 5 27 -8 -3 -15 -17 -17 -84 -13 -13 0 -21 5 -18
10 8 12 -151 3 -187 -11 -15 -6 -30 -8 -34 -4 -3 3 -1 6 5 6 6 0 18 7 27 16
11 11 41 18 98 21 45 3 83 6 85 8 2 2 20 3 40 3 l37 0 -30 -14z m-887 -1 c-10
-2 -28 -2 -40 0 -13 2 -5 4 17 4 22 1 32 -1 23 -4z m179 1 c-3 -3 -12 -4 -19
-1 -8 3 -5 6 6 6 11 1 17 -2 13 -5z m28 -24 c-3 -5 1 -10 9 -10 9 0 16 5 16
10 0 6 14 10 30 10 30 0 41 -14 18 -22 -26 -10 -138 -2 -150 10 -9 9 -2 12 36
12 29 0 45 -4 41 -10z m142 -6 c-3 -3 -12 -4 -19 -1 -8 3 -5 6 6 6 11 1 17 -2
13 -5z m217 -3 c3 -5 -34 -9 -84 -9 -50 0 -90 4 -90 9 0 12 167 12 174 0z
m446 -1 c0 -5 -4 -10 -10 -10 -5 0 -10 5 -10 10 0 6 5 10 10 10 6 0 10 -4 10
-10z m58 -7 c-10 -2 -26 -2 -35 0 -10 3 -2 5 17 5 19 0 27 -2 18 -5z m1399 1
c-3 -3 -12 -4 -19 -1 -8 3 -5 6 6 6 11 1 17 -2 13 -5z m-130 -61 c-3 -10 -5
-4 -5 12 0 17 2 24 5 18 2 -7 2 -21 0 -30z m-2564 -30 c5 -26 4 -26 -9 -9 -7
10 -11 23 -8 27 8 14 11 11 17 -18z m1614 -55 c-3 -7 -5 -2 -5 12 0 14 2 19 5
13 2 -7 2 -19 0 -25z m-857 12 c0 -5 -2 -10 -4 -10 -3 0 -8 5 -11 10 -3 6 -1
10 4 10 6 0 11 -4 11 -10z m-53 -22 c-3 -8 -6 -5 -6 6 -1 11 2 17 5 13 3 -3 4
-12 1 -19z m496 -88 c-3 -12 -2 -20 3 -18 10 3 14 -5 14 -24 0 -6 -3 -8 -6 -5
-4 3 -15 2 -24 -3 -20 -11 -21 -3 -2 43 13 32 23 36 15 7z m-115 -35 c-1 -19
-5 -32 -9 -29 -10 6 -7 64 3 64 4 0 7 -16 6 -35z m342 15 c0 -5 -5 -10 -11
-10 -5 0 -7 5 -4 10 3 6 8 10 11 10 2 0 4 -4 4 -10z m-285 -10 c3 -5 1 -10 -4
-10 -6 0 -11 5 -11 10 0 6 2 10 4 10 3 0 8 -4 11 -10z m161 -5 c-1 -8 -6 -18
-11 -22 -4 -4 -5 -2 -1 5 5 7 1 12 -11 13 -16 0 -16 1 2 9 11 5 21 9 22 9 1 1
0 -6 -1 -14z m81 -13 c-10 -10 -14 -22 -10 -27 5 -4 2 -5 -5 -1 -9 6 -8 13 5
31 10 13 20 21 22 19 2 -2 -3 -12 -12 -22z m-30 -29 c6 -13 7 -21 3 -18 -5 3
-11 -1 -13 -7 -3 -7 -6 -4 -6 8 -1 11 -6 25 -11 30 -7 7 -6 11 3 11 7 0 18
-11 24 -24z m-120 -85 c-3 -8 -6 -5 -6 6 -1 11 2 17 5 13 3 -3 4 -12 1 -19z"/>
<path d="M1421 806 c2 -2 24 -6 48 -9 29 -4 40 -2 30 4 -13 8 -88 14 -78 5z"/>
<path d="M1348 793 c7 -3 16 -2 19 1 4 3 -2 6 -13 5 -11 0 -14 -3 -6 -6z"/>
<path d="M1390 789 c0 -5 9 -9 20 -9 11 0 20 2 20 4 0 2 -9 6 -20 9 -11 3 -20
1 -20 -4z"/>
<path d="M1578 783 c7 -3 16 -2 19 1 4 3 -2 6 -13 5 -11 0 -14 -3 -6 -6z"/>
<path d="M2278 893 c23 -2 61 -2 85 0 23 2 4 4 -43 4 -47 0 -66 -2 -42 -4z"/>
<path d="M2489 889 c76 -9 103 -18 60 -20 -15 -1 -9 -5 16 -9 33 -6 24 -8 -45
-9 -47 -2 -79 -5 -72 -8 26 -10 180 -39 176 -32 -2 4 -21 10 -41 14 l-38 8 40
9 c67 15 165 24 178 16 7 -4 -5 -8 -28 -9 l-40 -1 33 -8 c61 -14 48 -23 -26
-16 -49 4 -71 3 -67 -4 8 -13 172 -13 180 0 3 6 29 10 56 10 32 0 48 -4 44
-10 -4 -6 -11 -8 -16 -5 -5 4 -9 1 -9 -4 0 -6 8 -11 19 -11 10 0 25 -9 32 -21
10 -14 19 -18 33 -13 19 7 19 8 0 14 -12 4 5 9 46 14 36 4 76 10 89 13 l25 6
-23 9 c-30 11 -103 -1 -94 -16 4 -6 -1 -5 -10 3 -11 9 -29 11 -50 7 -22 -4
-27 -3 -17 4 8 5 47 13 85 17 61 6 65 8 35 13 -35 7 -35 7 -10 18 23 10 21 11
-20 11 -26 0 -38 -3 -28 -7 40 -16 -1 -31 -95 -34 -86 -3 -98 -1 -103 15 -3 9
-15 17 -26 17 -49 0 -1 15 65 21 l72 6 -81 1 c-55 1 -91 -3 -110 -12 -15 -8
-32 -12 -38 -8 -6 4 3 10 19 13 17 4 -42 6 -130 6 -139 0 -150 -1 -86 -8z
m141 -9 c0 -13 -20 -13 -40 0 -12 8 -9 10 13 10 15 0 27 -4 27 -10z m457 -66
c-3 -3 -12 -4 -19 -1 -8 3 -5 6 6 6 11 1 17 -2 13 -5z"/>
<path d="M2928 893 c7 -3 16 -2 19 1 4 3 -2 6 -13 5 -11 0 -14 -3 -6 -6z"/>
<path d="M3053 893 c15 -2 39 -2 55 0 15 2 2 4 -28 4 -30 0 -43 -2 -27 -4z"/>
<path d="M3235 890 c3 -5 -1 -10 -7 -13 -7 -2 30 -2 83 1 58 3 99 1 102 -5 4
-6 -5 -9 -21 -6 -26 3 -26 3 -4 -8 18 -10 28 -9 57 7 19 10 32 21 29 23 -9 9
-244 10 -239 1z"/>
<path d="M3548 893 c28 -2 76 -2 105 0 28 2 5 3 -53 3 -58 0 -81 -1 -52 -3z"/>
<path d="M864 871 c4 -5 0 -12 -6 -14 -7 -3 5 -3 27 0 57 8 68 23 16 23 -23 0
-40 -4 -37 -9z"/>
<path d="M1970 865 c93 -17 113 -18 105 -6 -3 6 12 12 32 14 21 2 -18 4 -87 4
l-125 1 75 -13z"/>
<path d="M2226 873 c-39 -4 -39 -5 -14 -17 35 -19 102 -30 93 -17 -3 7 2 11
14 11 12 0 21 5 21 10 0 6 5 10 11 10 5 0 8 -4 5 -9 -9 -13 77 -10 90 4 10 10
-7 12 -84 12 -53 0 -115 -2 -136 -4z m74 -13 c-20 -13 -40 -13 -40 0 0 6 12
10 28 10 21 0 24 -2 12 -10z"/>
<path d="M2820 866 c8 -10 26 -14 58 -12 26 2 61 4 77 5 57 4 -5 20 -79 20
-59 1 -67 -1 -56 -13z"/>
<path d="M3091 871 c-36 -22 177 -33 230 -12 17 7 -9 8 -83 4 -71 -4 -112 -2
-121 5 -7 6 -18 7 -26 3z"/>
<path d="M3143 873 c9 -2 23 -2 30 0 6 3 -1 5 -18 5 -16 0 -22 -2 -12 -5z"/>
<path d="M3496 871 c-3 -5 4 -11 16 -14 25 -7 33 -3 23 12 -8 13 -32 14 -39 2z"/>
<path d="M498 863 c6 -2 18 -2 25 0 6 3 1 5 -13 5 -14 0 -19 -2 -12 -5z"/>
<path d="M2110 850 c14 -4 34 -8 45 -8 16 0 15 2 -5 8 -14 4 -34 8 -45 8 -16
0 -15 -2 5 -8z"/>
<path d="M973 843 c9 -2 23 -2 30 0 6 3 -1 5 -18 5 -16 0 -22 -2 -12 -5z"/>
<path d="M3320 840 c0 -5 17 -10 38 -10 27 0 33 3 22 10 -20 13 -60 13 -60 0z"/>
<path d="M2018 833 c18 -2 45 -2 60 0 15 2 0 4 -33 4 -33 0 -45 -2 -27 -4z"/>
<path d="M2340 829 c0 -5 13 -9 29 -9 17 0 33 -4 36 -10 3 -5 -3 -10 -14 -10
-11 0 -23 -5 -27 -11 -4 -7 0 -9 12 -6 11 4 32 9 49 13 26 6 27 8 10 15 -17 8
-16 8 5 6 14 -1 24 -8 23 -15 -4 -16 15 -15 32 2 12 12 10 15 -18 20 -56 12
-137 14 -137 5z"/>
<path d="M3233 816 c0 -14 5 -27 13 -30 8 -3 11 0 7 10 -3 9 1 14 13 14 15 0
16 2 5 9 -11 7 -11 9 0 14 8 3 2 6 -12 6 -22 1 -26 -4 -26 -23z"/>
<path d="M3453 833 c9 -2 25 -2 35 0 9 3 1 5 -18 5 -19 0 -27 -2 -17 -5z"/>
<path d="M998 823 c7 -3 16 -2 19 1 4 3 -2 6 -13 5 -11 0 -14 -3 -6 -6z"/>
<path d="M2118 809 c-17 -18 -17 -19 13 -19 16 0 28 4 25 9 -8 12 9 17 69 20
78 4 67 11 -16 10 -59 -1 -77 -4 -91 -20z"/>
<path d="M3328 813 c6 -2 18 -2 25 0 6 3 1 5 -13 5 -14 0 -19 -2 -12 -5z"/>
<path d="M988 798 c9 -9 15 -9 24 0 9 9 7 12 -12 12 -19 0 -21 -3 -12 -12z"/>
<path d="M2219 801 c11 -7 11 -9 0 -13 -8 -3 -2 -5 14 -5 22 0 25 2 16 13 -6
8 -19 14 -28 14 -13 0 -13 -2 -2 -9z"/>
<path d="M2817 802 c-9 -2 -15 -8 -12 -12 3 -5 -9 -14 -27 -19 -31 -9 -31 -9
-7 -10 15 -1 37 8 50 18 26 21 24 30 -4 23z"/>
<path d="M3167 804 c-7 -8 17 -34 32 -34 6 0 11 5 11 10 0 6 -5 10 -11 10 -5
0 -7 5 -4 10 7 11 -18 14 -28 4z"/>
<path d="M2555 790 c-3 -6 1 -7 9 -4 18 7 21 14 7 14 -6 0 -13 -4 -16 -10z"/>
<path d="M3353 793 c-32 -6 -29 -19 8 -32 20 -7 37 -7 48 -1 13 8 11 9 -11 10
-29 0 -38 14 -15 23 14 6 1 6 -30 0z"/>
<path d="M2875 780 c7 -12 42 -13 48 -2 3 4 -8 8 -24 9 -17 1 -27 -2 -24 -7z"/>
<path d="M2394 768 c-2 -3 9 -11 24 -16 20 -7 46 -6 88 4 l59 13 -54 -6 c-32
-3 -51 -1 -48 4 3 5 -10 9 -29 9 -20 -1 -38 -4 -40 -8z"/>
<path d="M2578 773 c7 -3 16 -2 19 1 4 3 -2 6 -13 5 -11 0 -14 -3 -6 -6z"/>
<path d="M3015 770 c-3 -5 -1 -10 4 -10 6 0 11 5 11 10 0 6 -2 10 -4 10 -3 0
-8 -4 -11 -10z"/>
<path d="M3278 773 c7 -3 16 -2 19 1 4 3 -2 6 -13 5 -11 0 -14 -3 -6 -6z"/>
<path d="M606 761 c-4 -5 3 -7 14 -4 23 6 26 13 6 13 -8 0 -17 -4 -20 -9z"/>
<path d="M2185 760 c-19 -8 -19 -9 3 -9 12 -1 22 4 22 9 0 6 -1 10 -2 9 -2 0
-12 -4 -23 -9z"/>
<path d="M2230 749 c11 -20 12 -20 26 -2 11 15 15 15 23 4 5 -8 16 -11 30 -6
39 12 22 25 -34 25 -53 0 -55 -1 -45 -21z"/>
<path d="M2357 746 c-5 -12 0 -16 21 -15 16 0 21 3 12 6 -8 3 -18 10 -21 15
-3 5 -9 3 -12 -6z"/>
<path d="M2550 750 c-39 -8 -35 -9 80 -16 49 -2 61 -1 47 7 -10 6 -36 8 -60 4
-31 -4 -38 -3 -27 4 17 12 12 12 -40 1z"/>
<path d="M3205 750 c3 -5 13 -10 21 -10 8 0 12 5 9 10 -3 6 -13 10 -21 10 -8
0 -12 -4 -9 -10z"/>
<path d="M3108 743 c6 -2 18 -2 25 0 6 3 1 5 -13 5 -14 0 -19 -2 -12 -5z"/>
<path d="M663 733 c9 -2 23 -2 30 0 6 3 -1 5 -18 5 -16 0 -22 -2 -12 -5z"/>
<path d="M3586 722 c-3 -5 1 -9 9 -9 8 0 12 4 9 9 -3 4 -7 8 -9 8 -2 0 -6 -4
-9 -8z"/>
<path d="M592 640 c0 -19 2 -27 5 -17 2 9 2 25 0 35 -3 9 -5 1 -5 -18z"/>
<path d="M641 604 c0 -11 3 -14 6 -6 3 7 2 16 -1 19 -3 4 -6 -2 -5 -13z"/>
<path d="M802 430 c0 -14 2 -19 5 -12 2 6 2 18 0 25 -3 6 -5 1 -5 -13z"/>
<path d="M2902 420 c0 -14 2 -19 5 -12 2 6 2 18 0 25 -3 6 -5 1 -5 -13z"/>
<path d="M1112 410 c0 -14 2 -19 5 -12 2 6 2 18 0 25 -3 6 -5 1 -5 -13z"/>
<path d="M932 400 c0 -14 2 -19 5 -12 2 6 2 18 0 25 -3 6 -5 1 -5 -13z"/>
<path d="M1151 394 c0 -11 3 -14 6 -6 3 7 2 16 -1 19 -3 4 -6 -2 -5 -13z"/>
<path d="M1480 400 c0 -5 5 -10 11 -10 5 0 7 5 4 10 -3 6 -8 10 -11 10 -2 0
-4 -4 -4 -10z"/>
<path d="M2871 394 c0 -11 3 -14 6 -6 3 7 2 16 -1 19 -3 4 -6 -2 -5 -13z"/>
<path d="M1681 384 c0 -11 3 -14 6 -6 3 7 2 16 -1 19 -3 4 -6 -2 -5 -13z"/>
<path d="M2663 355 c0 -22 2 -30 4 -17 2 12 2 30 0 40 -3 9 -5 -1 -4 -23z"/>
<path d="M1751 354 c0 -11 3 -14 6 -6 3 7 2 16 -1 19 -3 4 -6 -2 -5 -13z"/>
<path d="M1682 340 c0 -14 2 -19 5 -12 2 6 2 18 0 25 -3 6 -5 1 -5 -13z"/>
<path d="M3051 344 c0 -11 3 -14 6 -6 3 7 2 16 -1 19 -3 4 -6 -2 -5 -13z"/>
<path d="M1751 314 c0 -11 3 -14 6 -6 3 7 2 16 -1 19 -3 4 -6 -2 -5 -13z"/>
<path d="M1802 294 c0 -40 5 -41 12 -1 2 14 1 29 -4 32 -4 3 -8 -11 -8 -31z"/>
<path d="M2071 304 c0 -11 3 -14 6 -6 3 7 2 16 -1 19 -3 4 -6 -2 -5 -13z"/>
<path d="M3051 304 c0 -11 3 -14 6 -6 3 7 2 16 -1 19 -3 4 -6 -2 -5 -13z"/>
<path d="M2388 285 c2 -14 6 -25 8 -25 2 0 4 11 4 25 0 14 -4 25 -9 25 -4 0
-6 -11 -3 -25z"/>
<path d="M2032 263 c-1 -20 1 -34 4 -30 10 10 15 67 6 67 -4 0 -8 -17 -10 -37z"/>
<path d="M1985 280 c-3 -5 -1 -10 4 -10 6 0 11 5 11 10 0 6 -2 10 -4 10 -3 0
-8 -4 -11 -10z"/>
<path d="M2693 245 c0 -22 2 -30 4 -17 2 12 2 30 0 40 -3 9 -5 -1 -4 -23z"/>
<path d="M2056 229 c-8 -42 0 -50 9 -9 4 17 5 34 2 36 -2 3 -7 -10 -11 -27z"/>
<path d="M2621 244 c0 -11 3 -14 6 -6 3 7 2 16 -1 19 -3 4 -6 -2 -5 -13z"/>
<path d="M3002 230 c0 -14 2 -19 5 -12 2 6 2 18 0 25 -3 6 -5 1 -5 -13z"/>
<path d="M2120 214 c0 -11 7 -29 15 -40 19 -25 19 -15 0 27 -10 25 -14 29 -15
13z"/>
<path d="M1832 130 c0 -14 2 -19 5 -12 2 6 2 18 0 25 -3 6 -5 1 -5 -13z"/>
</g>
</svg>
